<svg width="230" height="230" viewBox="0 0 230 230" fill="none" xmlns="http://www.w3.org/2000/svg">
<g clip-path="url(#clip0_19_22)">
<mask id="mask0_19_22" style="mask-type:luminance" maskUnits="userSpaceOnUse" x="0" y="0" width="230" height="230">
<path d="M230 0H0V230H230V0Z" fill="white"/>
</mask>
<g mask="url(#mask0_19_22)">
<path fill-rule="evenodd" clip-rule="evenodd" d="M74.7197 198.534C74.4308 198.707 74.0698 198.65 73.8533 198.4C72.5543 197.25 71.0746 196.322 69.7032 195.215C68.9813 194.616 68.2241 194.076 67.4302 193.602C66.8165 193.26 66.3835 192.728 65.8061 192.339L65.6616 192.237C64.9397 191.814 64.3985 191.203 63.7128 190.728C63.1715 190.327 62.7385 189.732 62.1972 189.303C61.3674 188.668 60.6093 187.994 59.8515 187.28C59.3103 186.881 58.8408 186.388 58.516 185.826C58.4077 185.665 58.2633 185.63 58.1551 185.531C57.6859 185.118 57.2531 184.678 56.8201 184.211C55.99 183.199 55.0154 182.27 54.1852 181.246C53.5719 180.503 52.9224 179.8 52.3091 179.076C51.6954 178.38 51.118 177.672 50.5405 176.952C49.1691 175.271 47.9059 173.512 46.7872 171.685C45.885 170.244 45.0914 168.753 44.3698 167.221C43.7561 166.003 43.1787 164.745 42.7457 163.454C42.3847 162.412 41.9158 161.412 41.6631 160.358C41.4466 159.365 41.1577 158.377 40.9412 157.396C40.3638 155.124 39.8949 152.837 39.4978 150.534C39.2813 149.178 39.0647 147.809 38.8121 146.462C38.5232 144.88 38.4149 143.279 38.126 141.698C37.9819 140.772 37.9095 139.792 37.8013 138.842C37.7292 137.922 37.7292 136.993 37.5848 136.08C37.4406 135.164 37.3686 134.242 37.3324 133.317C37.2603 132.459 36.9711 131.557 37.26 130.676C36.827 130.06 37.1156 129.346 37.0435 128.686C36.9714 128.025 36.9714 127.353 36.8632 126.71C36.7549 126.048 36.6464 125.37 36.5381 124.712C36.3578 123.376 36.0333 122.066 35.853 120.738C35.7448 119.927 35.3835 119.211 35.2032 118.433C34.8423 116.945 34.3375 115.496 33.6877 114.109C33.3991 113.557 33.2188 112.967 33.1464 112.359C33.0743 111.896 32.641 111.699 32.4966 111.277C32.3162 110.594 31.9915 109.947 31.7388 109.281C31.6667 109.054 31.522 108.871 31.3055 108.799L31.4858 108.214C31.3775 107.975 31.2699 108.259 31.1616 108.183C31.0172 107.919 30.8007 107.669 30.8366 107.309C30.8728 106.971 30.5115 106.871 30.4032 106.556C30.2227 105.873 29.465 105.408 29.6455 104.58C29.1042 104.111 28.9597 103.43 28.5988 102.858C28.4183 102.591 28.3104 102.267 28.3465 101.944V101.869C28.4186 101.554 27.805 101.517 28.0215 101.114C27.2276 100.248 27.1918 99.0582 26.867 98.0214C26.3257 96.3574 25.676 94.7238 25.4594 92.9599C25.3151 92.0776 24.9539 91.1959 24.8096 90.2989C24.4848 88.2832 24.0162 86.2859 23.944 84.2321C23.9079 83.3833 23.691 82.5415 23.691 81.6926L23.655 80.711C23.6189 79.2381 23.5828 77.7645 23.655 76.2916C23.6189 75.9503 23.6911 75.6056 23.8355 75.2968C24.052 74.9542 23.6908 74.6445 23.7269 74.2673C23.763 73.8196 24.016 73.4338 23.9799 72.944C23.9439 72.6742 24.0879 72.2727 24.0518 71.9596C23.9797 70.9424 24.485 69.9982 24.3768 68.9834C24.3768 68.6026 24.4853 68.2309 24.6658 67.8963C25.0627 66.7426 24.918 65.4666 25.4954 64.369C25.748 63.8265 25.8922 63.2295 25.8922 62.6256V62.3919C25.8922 62.219 25.8925 62.0528 26.0007 61.9543C26.4338 61.5446 26.4337 60.9656 26.578 60.4716C26.7945 59.9423 26.7948 59.3535 27.0474 58.8269C27.3722 58.3222 27.5889 57.7643 27.7333 57.1798C27.8054 56.1675 28.3105 55.3312 28.6714 54.4416C28.8518 53.9966 28.8876 53.4318 29.465 53.1769C29.7538 53.0475 29.1765 52.6001 29.6095 52.409L29.6455 52.3894C29.9342 52.2839 29.9704 52.034 29.9704 51.7239C29.9343 51.4403 30.4394 51.336 30.3672 51.0345C30.259 50.7331 30.2955 50.3182 30.4398 50.2952C30.8728 50.2351 30.5478 49.7334 30.8728 49.7104C30.9086 49.6984 30.9445 49.6705 30.9445 49.6349C31.2693 48.6125 32.0639 47.8753 32.4248 46.863C32.6772 46.2634 33.0016 45.7133 33.4347 45.2422C33.8318 44.7792 34.1569 44.2854 34.4454 43.7665C34.9867 42.9005 35.7807 42.2351 36.2857 41.3712C36.4302 41.1378 37.0797 41.3359 36.827 40.7631C37.2241 40.6962 37.1879 40.2831 37.3686 40.0648C37.5851 39.909 37.8016 39.7851 38.0543 39.6974C38.2708 39.1702 38.6317 38.7068 39.1009 38.3438C39.9311 37.5016 40.7968 36.712 41.699 35.98L42.4927 35.3792C43.5031 34.5788 44.5504 33.8039 45.7774 33.3463C46.1021 33.2286 46.0295 32.886 46.2818 32.7548C47.8336 31.982 49.3139 31.054 51.01 30.5602C51.6957 30.3531 52.3808 29.8798 53.1027 29.6622C54.5462 29.225 55.9541 28.5947 57.5058 28.3653C58.4081 28.23 59.3461 27.9442 60.2484 27.7823C62.1972 27.3918 64.1455 27.2343 66.1302 27.313L67.3216 27.3902C68.4042 27.459 69.4508 27.5373 70.5337 27.6952C71.0387 27.77 71.5079 28.0142 71.9771 28.0377C72.4101 28.06 72.879 28.1768 73.2762 28.3807C73.6009 28.5367 73.926 28.2932 74.2869 28.5164C74.5393 28.7433 74.8641 28.8315 75.225 28.756L75.2609 28.7387C75.4774 28.6683 75.766 28.9159 76.0187 29.0229C76.4155 29.1454 76.7762 29.307 77.1371 29.5048C77.3898 29.6873 77.8234 29.3269 77.9317 29.8133C78.3647 29.5965 78.6536 29.8977 78.9783 30.0286L79.0501 30.0454C79.3749 30.1593 79.6993 30.3196 80.0244 30.4594L81.1434 30.9255C81.4323 31.1101 81.7567 31.2444 82.1177 31.3242C82.7672 31.3619 83.2726 31.7608 83.9221 31.882C84.6078 32.07 85.2573 32.3426 85.9069 32.694C86.4481 32.9627 87.0979 32.8317 87.6754 33.1605C88.1805 33.5199 88.7935 33.7655 89.4072 33.8821C90.0567 33.9455 90.5982 34.3589 91.1757 34.3942L91.2842 34.396C92.042 34.3807 92.5109 34.906 93.1604 34.9766C94.5677 35.1302 95.8674 35.7233 97.2388 35.9036C98.9709 36.1309 100.667 36.5718 102.399 36.716C103.554 36.8098 104.709 36.8678 105.827 36.9619C106.982 37.0119 108.137 36.9647 109.256 36.8212C110.663 36.6804 112.071 36.4249 113.478 36.0579C114.85 35.7043 116.184 35.1437 117.556 34.7696C118.169 34.599 118.783 34.3166 119.397 34.1639C120.082 33.9995 120.732 33.5665 121.418 33.3997C123.15 32.9817 124.701 32.1006 126.506 31.8749C128.563 30.9813 130.801 30.8252 132.93 30.2254C133.904 29.9456 134.951 29.9251 135.997 29.7973L136.214 29.7682C138.054 29.513 139.894 29.4435 141.735 29.3565C143.431 29.2904 145.128 29.3358 146.824 29.4922C148.051 29.5946 149.241 29.7559 150.468 29.8355C150.938 29.8681 151.371 30.2927 151.876 30.0832C152.887 30.5599 154.077 30.405 155.087 30.9187C155.809 30.8344 156.423 31.2101 157.072 31.5152C157.541 31.7492 158.046 31.5266 158.516 31.8308C158.913 32.1482 159.418 32.3512 159.923 32.4193C160.789 32.4386 161.475 32.8817 162.233 33.1832C163.965 33.8845 165.698 34.6159 167.394 35.3771C167.971 35.627 168.621 35.6862 169.054 36.2228C169.415 36.6939 170.172 36.5697 170.497 37.1103C170.642 37.3072 170.894 37.0153 171.111 37.1849C171.544 37.5161 172.157 37.4566 172.518 37.9825C172.771 38.3717 173.421 38.2536 173.709 38.7179L173.745 38.7851C173.89 39.1135 174.576 38.5241 174.611 39.2021C175.261 39.3693 175.766 39.8265 176.307 40.1776C176.74 40.4677 177.354 40.4539 177.715 40.9566C178.04 41.3853 178.797 41.2436 179.014 41.8441C179.808 41.9906 180.277 42.6898 181.035 42.9796C181.576 43.2323 182.082 43.5571 182.551 43.9453C183.273 44.5093 184.03 45.0512 184.824 45.5731C185.077 45.7654 185.366 45.9727 185.618 46.1938C185.727 46.3143 185.763 46.5262 185.979 46.6161C187.351 47.1856 188.397 48.2322 189.48 49.1783C190.129 49.6616 190.707 50.1949 191.248 50.773L191.428 50.9671C191.609 51.1587 191.969 51.3044 192.078 51.5537C192.439 52.2483 193.053 52.6685 193.594 53.1462L193.701 53.2263C194.026 53.4909 194.279 53.7995 194.496 54.1414C194.532 54.2067 194.532 54.3321 194.604 54.3554C195.578 54.7866 196.047 55.7354 196.697 56.4613C197.347 57.1633 197.888 57.9864 198.538 58.6693C199.909 60.0466 213.515 81.6245 214.85 85.1721L215.247 86.1874C215.643 87.204 216.004 88.2265 216.329 89.2599L216.617 90.1395C216.906 91.0205 217.159 91.9065 217.376 92.7979L217.7 93.9881C218.277 96.3694 218.855 98.7577 219.288 101.181C219.649 103.344 219.902 105.518 220.118 107.694C220.299 109.091 220.371 110.484 220.407 111.887C220.479 114.128 220.515 116.37 220.479 118.612C220.443 120.722 219.938 122.784 220.01 124.891C219.505 126.087 219.829 127.444 219.288 128.632C219.396 129.289 219.071 129.89 218.963 130.492C218.819 131.113 218.855 131.794 218.494 132.383C218.314 132.651 218.53 133.044 218.314 133.371C218.097 133.636 218.025 133.98 218.098 134.31C217.628 134.43 218.097 134.82 217.881 135.067C217.628 135.335 217.484 135.677 217.448 136.038C217.448 136.854 216.834 137.507 216.798 138.239C216.762 138.987 216.293 139.546 216.149 140.203V140.328C216.041 141.203 215.318 141.744 215.174 142.557C215.138 142.629 214.958 142.665 214.85 142.72C214.85 142.909 215.066 142.903 215.174 143.071C214.921 143.23 214.669 143.425 214.452 143.65C214.272 143.978 214.128 144.323 214.019 144.682L214.452 145.54C214.163 145.933 214.164 146.339 213.839 146.627C213.695 146.753 213.659 147.218 213.587 147.527C213.515 147.934 212.936 148.085 213.009 148.431C213.045 148.821 212.937 149.21 212.72 149.535C211.385 152.725 210.013 155.91 208.642 159.089C208.498 159.43 208.498 159.89 208.029 160.021C208.426 160.599 207.632 160.639 207.559 161.028C207.451 161.383 207.235 161.707 206.982 161.974C206.585 162.493 206.405 163.197 206.116 163.811C206.008 164.257 205.755 164.66 205.43 164.973C205.069 165.223 205.033 165.755 204.708 166.14C204.311 166.597 203.987 167.106 203.734 167.652C203.59 168.056 203.373 168.419 203.049 168.697C202.76 168.912 202.869 169.476 202.399 169.589C202.111 170.311 201.569 170.829 201.136 171.423L201.064 171.535C199.945 173.069 198.754 174.535 197.491 175.926C196.408 177.098 195.362 178.289 194.279 179.451C193.955 179.825 193.594 180.195 193.197 180.544C191.898 181.836 190.526 183.055 189.083 184.196C187.747 185.171 186.484 186.209 185.149 187.13C184.427 187.62 183.777 188.266 183.055 188.797C181.395 190.049 179.7 191.255 177.931 192.372C176.416 193.417 174.791 194.312 173.131 195.047C172.662 195.224 172.265 195.53 171.832 195.736C171.291 195.916 170.786 196.133 170.281 196.386C169.704 196.775 169.017 196.97 168.44 197.323C167.971 197.597 167.358 197.288 166.96 197.858C166.672 198.272 165.914 197.97 165.59 198.45C164.832 198.347 164.398 198.985 163.712 199.099L163.605 199.111C162.883 199.178 162.197 199.63 161.511 199.913C160.826 200.237 160.104 200.516 159.382 200.746C158.047 201.087 156.82 201.75 155.485 202.114C154.258 202.461 153.067 203.083 151.732 203.167C151.443 203.187 151.443 203.46 151.226 203.536C150.974 203.616 150.757 203.497 150.541 203.598C149.674 203.979 148.736 204.288 147.798 204.522C146.499 204.897 145.163 205.236 143.828 205.622C141.807 206.186 139.714 206.643 137.621 206.991C136.286 207.238 134.914 207.437 133.543 207.651L131.63 207.951C130.692 208.1 129.754 208.245 128.78 208.373C127.589 208.535 126.361 208.617 125.134 208.765C124.196 208.881 123.222 209.037 122.284 209.193C120.949 209.409 119.614 209.579 118.314 209.786C116.438 210.069 114.561 210.248 112.648 210.321C111.71 210.387 110.735 210.39 109.797 210.334C109.256 210.287 108.714 210.275 108.173 210.295L107.921 210.309C106.694 210.392 105.503 210.141 104.276 210.037C103.915 210.004 103.554 209.891 103.229 209.823L103.049 209.798C102.76 209.752 102.471 209.686 102.183 209.623L101.966 209.577C100.919 209.366 99.9451 208.975 98.8626 208.9L98.6823 208.89C98.574 208.89 98.5013 208.872 98.4293 208.837C97.4188 208.25 96.1918 208.206 95.1093 207.712L94.929 207.62C93.9185 207.101 92.7271 207.108 91.7528 206.514C90.9951 206.637 90.4176 206.07 89.7681 205.948C88.0357 205.634 86.5202 204.776 84.8961 204.122L84.7158 204.038C83.0196 203.379 81.3961 202.643 79.7361 201.951C78.6171 201.396 77.5345 200.75 76.5241 200.019C76.3076 199.815 76.0549 199.64 75.8022 199.497C75.333 199.341 74.9362 198.991 74.7197 198.534Z" fill="#64FCD9"/>
<path fill-rule="evenodd" clip-rule="evenodd" d="M98.9801 105.31C97.8003 110.093 94.9397 113.822 90.4704 116.84C91.6145 113.505 93.0804 109.603 94.2246 106.268C93.1163 108.543 91.1502 110.774 88.9333 111.988C90.3278 106.968 93.2595 102.977 93.2595 96.6147C93.2595 94.327 90.7921 92.56 90.8635 91.6295C90.9708 90.6881 91.4716 89.8463 91.8648 88.9839C94.0102 84.1579 99.7667 107.289 98.9801 105.31Z" fill="white"/>
<path fill-rule="evenodd" clip-rule="evenodd" d="M187.989 63.4088C187.953 63.4036 187.881 63.3969 187.845 63.3898C187.881 63.3147 187.953 63.3196 187.989 63.4088ZM152.694 135.46C152.477 135.651 152.26 135.84 152.044 136.029C151.827 136.029 151.105 134.796 150.093 133.082C149.19 131.504 147.997 129.517 146.805 127.709C145.757 126.129 144.602 124.705 143.771 123.684C143.012 122.756 142.506 122.161 142.615 122.084C144.963 120.406 147.383 118.848 149.804 117.291C153.742 114.776 157.643 112.263 161.148 109.255C170.468 101.22 176.935 91.1269 180.836 82.4663C184.088 75.1612 185.857 69.3873 186.869 66.1667C187.339 64.5834 187.628 63.6174 187.845 63.3898C185.786 63.1098 183.979 61.5415 183.437 59.5571C182.859 57.5215 183.654 55.1779 185.352 53.9105C187.267 52.494 187.881 49.9462 188.062 47.5919C188.098 47.1064 188.134 46.6167 188.134 46.1266C188.242 44.2376 188.351 42.3381 189.145 40.6324C189.434 39.9651 189.976 39.2702 190.698 39.2536C191.854 39.2273 192.288 40.775 192.324 41.9449L192.541 47.1886C193.047 46.31 194.492 46.5284 195.07 47.3435C195.684 48.1583 195.648 49.251 195.612 50.2577C195.901 48.0225 196.804 45.8669 198.177 44.0913C198.611 43.5344 199.261 42.9615 199.947 43.175C200.67 43.4007 200.814 44.3142 200.85 45.061C201.067 51.5402 199.116 58.0722 195.431 63.3855C194.709 64.4107 194.311 65.5984 194.058 66.8312C194.131 67.6954 194.203 68.6271 194.094 69.4042C192.902 78.2727 190.879 87.0332 188.134 95.5481C186.508 100.614 184.557 105.679 181.269 109.869C179.536 112.078 177.477 113.999 175.381 115.898C169.059 121.719 161.364 128.309 154.536 134.142C153.633 134.932 152.73 135.708 151.827 136.467C151.791 136.467 152.08 136.116 152.694 135.46Z" fill="white"/>
<path d="M83.6921 164.666C84.2309 166.187 85.56 168.131 85.56 168.131C85.56 168.131 76.219 181.355 72.6622 188.909C69.357 195.931 66.0523 212.188 55.8134 202.427C60.6633 188.595 65.5847 174.688 72.6622 161.855C75.8957 156.018 78.7339 153.947 78.7339 153.947C78.7339 153.947 81.8239 159.343 83.6921 164.666Z" fill="white"/>
<path fill-rule="evenodd" clip-rule="evenodd" d="M94.2249 86.0878C93.5051 86.6827 94.1166 87.8453 94.8723 88.3528C95.6282 88.8604 96.6003 89.2449 96.8883 90.1211C95.7006 90.1922 94.657 89.2112 93.5051 89.3409C92.2457 89.4841 91.4897 91.0064 91.7415 92.2662C91.9936 93.5266 92.9292 94.5282 93.9011 95.3663C95.4126 96.6724 97.1042 97.7696 98.9037 98.6179C99.5873 98.9282 100.307 99.8669 99.6593 100.195C99.0475 99.8464 98.4357 99.4977 97.8239 99.1487C98.8316 102.315 99.8749 105.545 101.854 108.212C103.87 110.879 106.965 112.928 110.276 112.736C110.924 112.699 111.859 112.837 111.787 113.475C111.355 113.575 110.924 113.675 110.492 113.775C111.823 114.907 113.731 115.184 115.458 114.892C117.15 114.601 118.734 113.806 120.281 112.988C123.376 111.346 126.471 109.517 128.702 106.831C130.25 104.987 131.33 102.806 132.229 100.576C135.036 93.5174 136.08 85.7363 135.144 78.1847C135.108 77.8053 134.857 77.3033 134.497 77.4211C125.716 80.2771 115.818 79.4908 107.577 75.2842C105.813 74.3744 104.05 73.2464 103.007 71.5282C106.821 73.8821 110.96 75.6768 115.278 76.8366C119.525 77.9737 123.988 78.4996 128.306 77.8452C132.661 77.1905 136.872 75.2916 139.895 72.102C144.034 67.7543 145.51 61.3818 144.934 55.4174C144.358 49.4534 141.874 43.83 138.887 38.64C138.024 42.1832 134.964 44.8893 131.581 46.1816C128.162 47.4735 124.456 47.5508 120.821 47.3723C117.186 47.1942 113.515 46.7765 109.916 47.1368C107.685 47.3604 105.309 47.9667 103.798 49.6444C101.495 52.1987 101.999 56.1289 102.647 59.5041C101.639 58.9702 101.099 57.7 101.387 56.5944C97.3563 57.339 94.4408 61.0975 93.3969 65.0695C92.3533 69.0417 92.8572 73.2305 93.361 77.303C93.5772 79.0314 93.7934 80.7601 94.0093 82.4884C94.1531 83.544 94.3325 84.6753 95.0523 85.4515C97.3198 87.8944 98.9396 90.9742 99.6235 94.2506C102.071 90.0337 103.762 85.3791 104.626 80.5706C104.842 79.4877 104.986 78.3552 105.633 77.4481C106.245 76.5416 107.469 75.9491 108.477 76.4416C104.554 82.4283 104.373 90.5446 99.5511 95.8103C98.7593 93.8103 97.9674 91.8105 97.1759 89.8107C96.5641 88.2844 95.7726 86.5824 94.2249 86.0878Z" fill="white"/>
<path fill-rule="evenodd" clip-rule="evenodd" d="M152.128 145.249C148.973 147.472 145.747 149.562 142.448 151.513C141.723 156.545 140.055 166.216 138.75 174.367C138.17 178.074 138.17 181.229 137.662 183.821C136.611 189.093 132.297 191.896 127.112 191.641C96.6954 190.147 96.2599 206.187 95.0998 195.826C93.9397 185.464 93.3966 175.032 93.5051 164.607C91.1487 166.329 88.8282 168.049 86.4717 169.771C85.7106 168.643 79.112 158.049 79.4383 154.189C79.8008 149.98 84.5143 143.869 89.8797 139.058C93.215 136.06 97.0938 133.877 99.4502 132.025C100.393 131.276 105.324 126.84 106.448 122.508C107.644 117.974 105.106 113.541 107.318 112.947C109.094 112.479 110.218 113.868 112.212 114.753C113.735 115.433 116.272 114.224 116.852 115.186C117.432 116.147 116.671 119.946 118.158 121.406C120.913 124.112 126.641 124.565 127.112 124.516C133.276 123.862 139.765 121.058 141.65 121.755C148.067 124.153 152.925 136.191 153.976 140.321C154.23 141.263 154.412 142.281 154.049 143.187C153.723 144.078 152.889 144.692 152.128 145.249Z" fill="white"/>
<path fill-rule="evenodd" clip-rule="evenodd" d="M144.489 123.875C144.31 123.629 144.094 123.412 143.95 123.222C143.088 122.3 142.477 121.982 142.621 121.88C148.691 117.523 155.444 113.979 161.047 109.143C170.314 101.166 176.743 91.145 180.622 82.547C183.567 75.9665 179.365 91.0625 169.595 105.587C161.514 117.532 144.812 124.298 144.489 123.875Z" fill="#E7EAEE"/>
<path fill-rule="evenodd" clip-rule="evenodd" d="M151.867 145.395C152.625 144.838 153.455 144.225 153.78 143.333C154.141 142.427 153.96 141.41 153.707 140.467C151.939 133.383 147.97 126.858 142.522 121.988C165.182 110.753 182.358 88.9981 187.951 64.3642C183.079 78.3776 176.476 92.0408 166.59 103.12C156.703 114.198 143.207 122.541 128.413 124.109C125.13 124.458 121.449 124.354 118.995 122.157C116.542 119.96 116.614 115.039 119.753 114.01C125.67 112.076 130.362 107.288 133.032 101.678C135.702 96.0677 136.496 89.6991 136.135 83.4977C135.991 80.6742 135.81 77.3181 138.084 75.6127C143.785 71.2976 146.527 63.7895 146.202 56.6411C145.878 49.4933 142.81 42.696 138.769 36.8C137.397 40.9811 133.897 44.4084 129.712 45.6968C126.176 46.7762 122.459 46.3944 118.742 46.0114C116.938 45.8243 115.134 45.637 113.33 45.6192C107.845 45.563 101.314 48.2629 100.7 53.7115C100.52 55.4954 98.8969 56.5258 97.3093 57.543C96.8043 57.8739 96.2624 58.2035 95.7935 58.5571C91.5716 61.771 91.2107 67.9463 91.8602 73.2087C91.9684 73.9677 92.0767 74.7332 92.1849 75.5026C92.7986 80.0667 93.4843 84.7541 91.6078 88.8911C91.5357 89.0741 91.4278 89.2569 91.3554 89.4394C91.0306 90.1171 90.7056 90.7982 90.5973 91.5407C90.3808 93.6726 92.0767 95.1001 93.8446 96.5691C94.783 97.3489 95.7217 98.1404 96.4071 99.0549C98.0671 101.314 98.0306 104.488 97.0205 107.109C96.01 109.728 94.1338 111.921 92.2935 114.058C94.2421 110.216 95.2522 105.899 95.2163 101.593L90.0202 110.308C91.8243 105.946 92.871 101.256 93.0154 96.5341L88.8297 111.617C91.0306 110.402 92.8706 108.482 93.9894 106.203L90.5253 116.224C94.4586 113.674 97.4173 109.713 98.7887 105.243C99.5823 107.226 100.917 108.988 102.613 110.282C108.495 114.773 108.025 125.219 101.783 129.187C89.3703 137.07 79.8806 148.915 72.7358 161.768C65.6276 174.621 60.6848 188.547 55.8134 202.4C62.8495 186.103 70.4993 170.068 78.7621 154.336C80.6748 159.828 83.2726 165.077 86.5202 169.919L93.5205 164.755C93.4122 175.181 93.9529 185.614 95.1078 195.976C96.4789 196.122 96.8043 194.103 96.5877 192.736C94.4947 179.642 94.2056 166.27 95.649 153.093C94.2776 153.976 94.2417 155.816 94.2056 157.539C94.2056 157.865 94.2056 158.187 94.2056 158.497C94.0252 162.767 90.8141 166.736 86.7005 167.845C84.5716 165.15 82.4066 162.398 81.1796 159.183C79.9526 155.969 79.8447 152.159 81.685 149.256C86.5923 141.457 93.7005 135.043 101.964 130.927C105.644 134.497 110.01 137.362 114.737 139.322C116.253 139.945 117.984 140.473 119.464 139.799C120.511 139.333 121.196 138.375 121.81 137.43C124.119 133.85 125.815 129.865 126.789 125.713C131.228 125.082 135.63 124.143 139.924 122.904C141.656 122.403 143.351 123.817 144.542 125.195C148.187 129.47 150.893 134.551 152.373 139.969C152.697 141.074 152.949 142.288 152.48 143.336C152.12 144.178 151.326 144.765 150.568 145.298C147.754 147.291 144.795 149.055 141.692 150.568C142.017 147.204 141.15 143.737 139.31 140.914C142.233 148.781 140.681 157.125 139.094 165.555C137.903 171.995 136.712 178.485 137.47 184.85L142.233 151.66C145.517 149.709 148.728 147.618 151.867 145.395ZM94.0976 86.0118C95.6493 86.5067 96.443 88.2072 97.0563 89.7313L99.4376 95.7254C102.144 92.7909 103.371 88.9702 104.634 85.1273C105.644 82.0806 106.655 79.0195 108.387 76.3748C107.376 75.8829 106.149 76.4747 105.536 77.3809C104.959 78.2261 104.742 79.2676 104.562 80.282C104.562 80.3547 104.562 80.4274 104.526 80.5C103.66 85.3043 101.964 89.954 99.5103 94.1673C98.8246 90.8939 97.2005 87.8168 94.9272 85.3764C94.2056 84.6008 94.0259 83.4707 93.8814 82.4161L93.2316 77.2356C92.7265 73.167 92.2211 68.982 93.2675 65.0137C94.3138 61.0451 97.2373 57.2903 101.279 56.5466C100.99 57.6509 101.531 58.9202 102.541 59.4535C101.892 56.0814 101.386 52.1548 103.696 49.6031C105.211 47.9271 107.593 47.3212 109.83 47.0982C112.608 46.8225 115.387 47.0019 118.165 47.1813C119.031 47.2365 119.897 47.2917 120.764 47.3334C124.408 47.5119 128.124 47.4343 131.552 46.1433C134.944 44.8525 138.011 42.1489 138.877 38.6091C141.872 43.7945 144.362 49.4123 144.94 55.3709C145.517 61.3294 144.037 67.6958 139.888 72.0391C136.857 75.226 132.635 77.1233 128.269 77.7772C123.938 78.431 119.464 77.9057 115.207 76.7701C110.877 75.6112 106.727 73.8184 102.902 71.4663C103.949 73.1833 105.717 74.3094 107.485 75.2189C115.748 79.4212 125.671 80.2069 134.475 77.3533C134.836 77.2359 135.088 77.7379 135.124 78.1166C136.062 85.6606 135.016 93.4346 132.202 100.486C131.3 102.715 130.217 104.894 128.665 106.736C126.428 109.419 123.325 111.247 120.222 112.887C118.671 113.704 117.083 114.498 115.387 114.789C113.655 115.08 111.742 114.804 110.407 113.673L111.706 113.373C111.778 112.736 110.84 112.598 110.191 112.635C106.871 112.826 103.768 110.78 101.747 108.116C99.7627 105.451 98.7163 102.224 97.7062 99.061L99.5462 100.106C100.196 99.778 99.4741 98.8406 98.7887 98.5302C96.9846 97.6829 95.2884 96.5866 93.7729 95.2817C92.7986 94.4445 91.8605 93.4435 91.6078 92.185C91.3554 90.9258 92.1132 89.405 93.376 89.2618C93.9894 89.1956 94.5665 89.4207 95.1078 89.6467C95.649 89.861 96.1906 90.076 96.7681 90.0417C96.5516 89.3575 95.9017 88.9736 95.2522 88.596C95.0716 88.4906 94.9272 88.386 94.7468 88.2753C93.9891 87.7684 93.376 86.6061 94.0976 86.0118ZM109.83 114.494C111.49 115.745 113.727 116.216 115.748 115.743C114.81 118.156 116 121.009 117.985 122.667C119.969 124.325 122.604 125.009 125.165 125.418C125.093 129.964 123.434 134.469 120.583 138.003C119.753 139.042 118.129 138.816 116.83 138.419C111.779 136.845 107.088 134.072 103.299 130.394C103.624 129.917 104.165 129.648 104.67 129.379C105.175 129.13 105.645 128.881 105.969 128.469C106.294 128.095 106.438 127.622 106.583 127.158C107.881 122.607 108.134 117.751 107.268 113.091C108.098 113.104 108.747 113.63 109.361 114.144C109.541 114.264 109.686 114.382 109.83 114.494ZM187.265 55.0274C185.966 55.7652 184.487 56.7687 184.451 58.2716C184.415 59.5556 185.425 60.4158 186.436 61.3033C187.157 61.9298 187.878 62.5692 188.311 63.3807C186.183 63.1639 184.306 61.5674 183.729 59.5336C183.188 57.5 183.981 55.1596 185.677 53.8937C187.553 52.4784 188.167 49.9337 188.347 47.5821C188.384 47.0976 188.42 46.6085 188.456 46.1193V46.1184C188.564 44.2318 188.672 42.3345 189.43 40.6306C189.755 39.9642 190.26 39.2703 191.018 39.2537C192.172 39.2273 192.605 40.7732 192.642 41.9416L192.858 47.1795C193.327 46.3018 194.806 46.5199 195.384 47.3341C195.961 48.1479 195.961 49.2394 195.925 50.2449C196.214 48.0124 197.079 45.859 198.487 44.0858C198.92 43.5292 199.569 42.9573 200.219 43.1704C200.941 43.3958 201.121 44.3085 201.157 45.0543C201.374 51.5259 199.425 58.0505 195.709 63.3574C194.518 65.0483 194.229 67.1815 193.976 69.2304L193.94 69.3693C192.75 78.227 190.765 86.9775 188.023 95.4826C186.363 100.543 184.414 105.602 181.131 109.787C179.399 111.993 177.342 113.912 175.285 115.809C168.105 122.411 160.78 128.889 153.382 135.24C152.769 135.24 153.058 134.218 153.527 133.806C155.114 132.415 156.739 131.034 158.362 129.652C165.182 123.849 171.966 118.04 178.028 111.45C179.76 109.529 181.455 107.533 182.791 105.294C184.09 103.14 184.991 100.793 185.857 98.4373C189.61 88.0821 192.245 77.3138 193.652 66.3888C193.76 65.6046 193.832 64.7555 193.435 64.0704C198.378 58.7574 200.833 51.2324 199.967 44.034C198.054 44.9181 197.621 47.0639 197.224 49.2737C196.863 51.1248 196.466 53.0212 195.203 54.2574L195.023 49.0272C194.987 48.5251 194.915 47.9265 194.482 47.7051C193.724 47.3405 193.075 48.3905 193.002 49.2158C192.93 50.0416 192.786 51.1269 191.956 51.2637C192.244 47.4586 192.028 43.6185 191.307 39.8707C189.466 41.5758 189.43 44.3588 189.394 46.8946C189.394 47.0513 189.394 47.2068 189.394 47.3613C189.322 50.0162 188.636 53.1846 186.146 54.1071C186.76 54.5741 187.41 54.1046 188.131 53.6247C188.42 53.4174 188.709 53.2086 188.997 53.0721C190.657 52.3159 192.569 54.4058 192.1 56.1685C191.631 57.9309 189.682 58.9337 187.842 58.9264C188.239 58.2894 188.961 57.9036 189.683 57.5329C190.621 57.044 191.523 56.5813 191.487 55.603C191.415 54.7523 190.512 54.1681 189.646 54.1739C188.817 54.1795 188.023 54.6091 187.265 55.0274ZM108.531 85.6027C108.567 85.2899 109.036 85.2439 109.361 85.2571C110.335 85.2969 111.346 85.0013 112.284 84.6931L112.428 84.6496C113.33 84.3542 114.268 84.0555 115.207 84.0286C116.217 84 117.299 84.3236 117.913 85.0967C117.985 85.1985 118.057 85.319 118.057 85.4454C118.021 85.6606 117.732 85.7643 117.516 85.7097C117.336 85.6677 117.191 85.5634 117.047 85.4598C117.011 85.43 116.974 85.4009 116.938 85.373C115.819 84.6118 114.269 84.94 113.006 85.3994L112.933 85.4199L112.897 85.4334C112.825 85.4567 112.753 85.4806 112.717 85.5045L112.681 85.5052C111.49 85.9394 110.227 86.3991 109.037 86.0504C108.784 85.9842 108.531 85.8327 108.531 85.6027ZM119.933 100.57C120.727 100.606 121.557 100.625 122.17 100.178C123.036 99.5548 123.145 98.3033 123.037 97.2321C123 96.5982 122.892 95.968 122.784 95.3381C122.64 94.4724 122.531 93.6076 122.495 92.7321C122.459 91.2202 122.784 89.6038 123.867 88.5482C123.939 88.1811 123.434 87.9183 123.109 88.0462C122.748 88.1741 122.532 88.5283 122.387 88.8678C121.377 91.1849 121.63 93.8085 121.882 96.367V96.3676V96.3679V96.3685V96.3688C121.918 96.7577 121.954 97.1444 121.99 97.5286C122.026 98.1506 122.026 98.8829 121.521 99.2616C121.16 99.5434 120.691 99.5125 120.186 99.4818C120.041 99.4717 119.897 99.4619 119.753 99.4631C119.428 99.4652 119.031 99.5845 118.959 99.8983C118.887 100.342 119.5 100.548 119.933 100.57ZM118.021 88.3247C118.382 88.2734 118.671 88.6666 118.671 89.037C118.634 89.4078 118.418 89.7323 118.165 89.9938C117.227 90.9414 115.856 91.3791 114.557 91.3867C113.222 91.3944 111.959 91.0068 110.732 90.4922C110.479 90.3809 110.191 90.2582 110.011 90.0466C109.794 89.8347 109.686 89.5102 109.83 89.2465C109.938 88.9824 110.335 88.8647 110.516 89.0738C111.418 90.0236 112.825 90.2695 114.124 90.2916C115.279 90.3115 116.613 90.0972 117.263 89.1024C117.299 89.0468 117.336 88.9877 117.371 88.9282V88.9279C117.552 88.6537 117.696 88.3673 118.021 88.3247ZM133.609 89.7721C132.166 91.038 129.892 91.433 128.052 90.7458C127.547 90.556 127.042 90.272 126.753 89.8264C126.645 89.6519 126.572 89.4388 126.681 89.2511C126.789 88.9475 127.222 88.8678 127.547 88.9852C127.799 89.0738 128.016 89.2382 128.197 89.402C128.269 89.4553 128.341 89.5087 128.413 89.5596C129.568 90.4541 131.408 90.4802 132.598 89.6185C132.598 89.6001 132.635 89.5817 132.671 89.5624C132.851 89.4219 133.068 89.2744 133.284 89.271C133.573 89.2667 133.826 89.6001 133.609 89.7721ZM84.7878 168.053C84.2107 168.382 83.8139 168.917 83.4532 169.44C79.5923 174.807 76.2006 180.494 73.3139 186.422C70.3911 192.412 67.9736 198.634 65.5558 204.848C65.3755 205.375 65.1587 205.985 65.4473 206.481C65.8082 207.166 66.8905 207.133 67.4679 206.615C68.0812 206.097 68.2981 205.293 68.4784 204.538C71.8704 191.953 77.4628 179.994 84.6434 169.13C84.8961 168.799 85.0767 168.307 84.7878 168.053ZM116.47 108.192C116.47 108.813 115.747 109.168 115.134 109.173C114.485 109.179 113.763 108.935 113.402 108.367C113.042 107.8 113.222 106.889 113.835 106.657L109.541 105.002C109.18 104.863 108.819 104.721 108.423 104.786C108.351 104.801 108.242 104.827 108.17 104.853C108.026 104.896 107.881 104.94 107.737 104.93C107.484 104.915 107.232 104.665 107.34 104.447C107.376 104.365 107.448 104.313 107.557 104.264L109.108 103.254C109.289 103.14 109.505 103.021 109.685 103.043C109.902 103.065 110.119 103.307 110.011 103.494C109.686 104.049 110.444 104.565 111.057 104.725C113.114 105.264 115.134 105.806 117.227 105.924C119.356 106.042 121.521 105.707 123.325 104.601C123.867 104.261 124.552 103.842 125.094 104.19C124.877 104.807 124.264 105.149 123.65 105.484C123.001 105.858 122.315 106.223 122.279 106.953C122.207 107.707 121.557 108.367 120.836 108.402C120.078 108.437 119.356 107.844 119.248 107.098C119.211 106.98 119.104 106.934 118.959 106.913C118.454 106.819 117.877 106.77 117.371 106.961C116.866 107.152 116.433 107.641 116.47 108.192ZM115.675 106.854C115.459 106.558 114.954 106.602 114.701 106.873C114.412 107.144 114.34 107.562 114.376 107.942C114.701 108.122 115.134 108.083 115.387 107.85C115.676 107.616 115.784 107.202 115.675 106.854ZM121.305 107.078C121.341 106.928 121.449 106.794 121.557 106.714C121.413 106.426 120.98 106.539 120.691 106.688C120.547 106.768 120.366 106.874 120.33 107.048C120.33 107.264 120.547 107.429 120.764 107.403C120.98 107.377 121.16 107.227 121.305 107.083V107.078ZM130.181 86.5076C130.398 86.5592 130.578 86.611 130.794 86.6487C131.841 86.8447 132.995 86.6484 133.897 86.1154C134.114 85.9737 133.898 85.6033 133.609 85.576C133.393 85.5545 133.212 85.6453 132.995 85.7349C132.923 85.7612 132.887 85.787 132.815 85.8106C132.057 86.1099 131.192 85.9379 130.326 85.7661C129.423 85.587 128.557 85.4089 127.763 85.7683C127.51 85.8983 127.223 86.1335 127.259 86.415C127.259 86.6969 127.691 86.914 127.908 86.7009C128.232 86.3583 128.81 86.2709 129.315 86.327C129.604 86.3598 129.893 86.4337 130.181 86.5076Z" fill="#00160A"/>
<path fill-rule="evenodd" clip-rule="evenodd" d="M115.897 115.613C115.276 115.754 114.656 115.812 114.035 115.792C112.574 115.744 110.858 120.914 114.035 126.812C117.175 132.608 123.053 134.926 123.82 133.091C124.842 130.667 125.39 128.054 125.427 125.429C122.834 125.014 120.169 124.32 118.161 122.637C116.152 120.955 114.948 118.061 115.897 115.613Z" fill="#E7EAEE"/>
<path d="M104.727 102.733C105.659 102.733 106.413 101.91 106.413 100.893C106.413 99.8771 105.659 99.0533 104.727 99.0533C103.795 99.0533 103.04 99.8771 103.04 100.893C103.04 101.91 103.795 102.733 104.727 102.733Z" fill="#FFB61D"/>
<path d="M127.88 103.347C128.896 103.347 129.72 102.523 129.72 101.507C129.72 100.49 128.896 99.6666 127.88 99.6666C126.864 99.6666 126.04 100.49 126.04 101.507C126.04 102.523 126.864 103.347 127.88 103.347Z" fill="#FFB61D"/>
<path fill-rule="evenodd" clip-rule="evenodd" d="M108.076 167.48C108.723 166.713 110.054 167.085 111.061 167.354C113.759 168.071 117.032 167.267 119.046 165.398C121.061 163.516 124.765 165.762 127.427 164.602C129.009 163.904 130.304 161.993 131.923 162.485C133.901 163.09 136.347 162.609 137.966 161.322V160.939V160.095C136.347 161.514 133.793 162.067 131.743 161.436C130.124 160.943 128.829 162.854 127.211 163.552C124.585 164.712 120.881 162.466 118.831 164.348C116.888 166.18 113.687 166.988 111.025 166.345L110.486 166.207C109.551 165.963 108.436 165.753 107.861 166.43C106.026 168.563 102.393 169.446 99.7311 168.409L100.055 169.506L100.199 169.561C102.861 170.433 106.278 169.538 108.076 167.48ZM105.558 155.477C106.242 154.757 107.572 155.145 108.543 155.427C111.205 156.177 114.514 155.483 116.601 153.735C118.723 151.975 122.284 154.217 124.981 153.166C126.6 152.532 128.002 150.728 129.549 151.238C131.491 151.864 138.613 148.121 138.613 148.121C136.815 148.071 131.563 150.856 129.549 150.269L129.405 150.225C127.822 149.715 126.456 151.519 124.837 152.153C122.14 153.204 118.579 150.962 116.456 152.722C114.406 154.435 111.169 155.136 108.58 154.457L108.04 154.312C107.105 154.056 106.026 153.829 105.415 154.464C103.472 156.47 98.1846 155.597 97.2133 156.176C97.2133 156.176 103.688 157.413 105.558 155.477Z" fill="#FFB61D"/>
<path fill-rule="evenodd" clip-rule="evenodd" d="M107.734 190.445C108.417 189.668 109.747 190.046 110.755 190.318C113.452 191.045 116.726 190.23 118.74 188.334C120.754 186.426 124.458 188.703 127.12 187.528C128.702 186.819 129.998 184.881 131.616 185.381C133.594 185.994 136.04 185.506 137.659 184.201V183.813V182.957C136.04 184.396 133.486 184.956 131.4 184.316C129.782 183.817 128.523 185.755 126.904 186.463C124.243 187.639 120.538 185.362 118.524 187.27C116.546 189.128 113.38 189.947 110.719 189.295L110.179 189.155C109.244 188.908 108.129 188.695 107.554 189.38C105.719 191.544 102.086 192.44 99.4244 191.388L99.7482 192.501L99.8924 192.556C102.518 193.44 105.971 192.533 107.734 190.445ZM105.252 178.274C105.935 177.543 107.23 177.937 108.237 178.223C110.898 178.984 114.172 178.28 116.294 176.506C118.38 174.722 121.977 176.996 124.674 175.93C126.293 175.288 127.66 173.458 129.242 173.975C131.185 174.61 138.307 170.814 138.307 170.814C136.508 170.763 131.221 173.588 129.242 172.992L129.098 172.948C127.516 172.43 126.149 174.261 124.495 174.903C121.797 175.969 118.236 173.695 116.15 175.48C114.063 177.217 110.862 177.928 108.237 177.24L107.734 177.093C106.799 176.833 105.719 176.602 105.108 177.247C103.165 179.281 97.8779 178.396 96.9067 178.983C96.9067 178.983 103.381 180.237 105.252 178.274Z" fill="#FFB61D"/>
<path fill-rule="evenodd" clip-rule="evenodd" d="M102.088 60.5667C103.85 61.6599 110.322 49.6457 119.994 49.6457C140.417 49.6457 141.963 43.8307 138.979 38.64C138.116 42.1835 135.06 44.8902 131.68 46.1822C128.264 47.4745 124.561 47.5517 120.929 47.3733C117.298 47.1951 113.63 46.7771 110.034 47.1378C107.805 47.3613 105.432 47.9676 103.922 49.6457C101.621 52.1999 102.124 56.1307 102.772 59.5065C101.765 58.9723 101.225 57.7018 101.513 56.5966C97.486 57.3412 94.5732 61.1 93.5303 65.0722C92.4876 69.0451 92.9912 73.2345 93.4947 77.3073C93.7103 79.0357 93.9262 80.7647 94.1421 82.4933C94.1421 82.4933 95.0768 68.567 96.2995 65.0722C97.9892 60.3149 102.484 61.2269 102.088 60.5667Z" fill="#E7EAEE"/>
</g>
</g>
<defs>
<clipPath id="clip0_19_22">
<rect width="230" height="230" fill="white"/>
</clipPath>
</defs>
</svg>
