<svg width="230" height="230" viewBox="0 0 230 230" fill="none" xmlns="http://www.w3.org/2000/svg">
<path fill-rule="evenodd" clip-rule="evenodd" d="M51.109 161.211C64.9118 176.221 127.886 155.721 149.087 161.211C163.531 164.952 214.155 168.723 194.12 116.666C130.568 -48.4635 7.3744 113.652 51.109 161.211Z" fill="#64FCD9"/>
<path d="M108.112 58.8076C113.861 58.8076 118.522 53.2635 118.522 46.4244C118.522 39.5854 113.861 34.0413 108.112 34.0413C102.363 34.0413 97.7018 39.5854 97.7018 46.4244C97.7018 53.2635 102.363 58.8076 108.112 58.8076Z" fill="white"/>
<path fill-rule="evenodd" clip-rule="evenodd" d="M22.8478 201.46C19.644 203.067 17.0134 204.997 17.9935 207.397C19.7017 211.578 25.0682 213.12 31.1708 214.353C39.7081 216.077 51.5592 216.294 66.8928 215.627C92.5253 214.512 89.6178 212.059 113.943 210.906C130.497 210.121 159.214 214.48 182.25 214.401C196.344 214.353 257.814 197.362 170.552 193.589C83.29 189.817 35.2951 195.219 22.8478 201.46Z" fill="white"/>
<path fill-rule="evenodd" clip-rule="evenodd" d="M22.8478 201.46C19.644 203.067 17.0134 204.997 17.9935 207.397C19.7017 211.578 90.6755 198.107 115 196.953C131.555 196.168 156.79 201.539 179.827 201.46C193.92 201.412 226.104 198.549 170.552 193.589C115 188.63 35.2951 195.219 22.8478 201.46Z" fill="#E7EAEE"/>
<path fill-rule="evenodd" clip-rule="evenodd" d="M68.5924 193.005C45.3526 194.581 29.2764 197.38 22.5041 200.775C20.6089 201.726 19.2232 202.629 18.2962 203.603C17.0997 204.861 16.695 206.246 17.2838 207.687C18.1708 209.858 19.9577 211.46 22.6149 212.678C24.6858 213.627 27.1457 214.314 30.7801 215.056L31.019 215.105C39.1788 216.753 50.5009 217.107 66.9263 216.393L68.2854 216.332C77.8105 215.891 82.8184 215.35 90.2253 214.167L92.2468 213.841C99.6823 212.648 104.337 212.136 113.637 211.688L114.415 211.652C120.948 211.367 126.973 211.675 143.604 212.995L153.038 213.749C155.188 213.918 157.011 214.055 158.851 214.187L160.809 214.325C169.093 214.893 175.823 215.179 181.932 215.169L182.253 215.168C185.882 215.155 192.447 214.061 198.832 212.402L199.331 212.271C206.283 210.43 211.967 208.21 214.873 206.003C218.862 202.973 217.772 199.845 211.421 197.7C204.546 195.378 191.155 193.713 170.585 192.824C129.671 191.055 95.1405 191.205 68.5924 193.005ZM170.519 194.356L171.736 194.41C191.481 195.305 204.365 196.935 210.93 199.153L211.227 199.255C213.858 200.178 215.276 201.161 215.593 202.072C215.851 202.811 215.343 203.72 213.946 204.782C211.241 206.836 205.706 208.997 198.932 210.79L198.446 210.918C192.256 212.526 185.893 213.595 182.384 213.633L182.247 213.635C175.778 213.657 168.604 213.341 159.595 212.703L156.665 212.49C154.783 212.349 152.775 212.192 150.3 211.994L144.269 211.509C126.767 210.117 120.775 210.428 113.906 210.754L112.553 210.82C103.854 211.26 99.2195 211.782 92.0064 212.94L89.7306 213.307C82.2609 214.493 77.2208 215.017 67.2032 215.46L66.8597 215.475C50.7122 216.177 39.5554 215.226 31.5636 213.65L31.3226 213.602C23.6802 212.058 19.2078 210.918 17.9072 207.138C17.3687 205.573 19.5671 203.963 23.1914 202.146C29.7238 198.871 45.6534 196.098 68.6964 194.535C95.1832 192.739 129.658 192.589 170.519 194.356Z" fill="#00160A"/>
<path fill-rule="evenodd" clip-rule="evenodd" d="M99.3005 40.4432C101.13 36.0652 106.059 33.2043 110.772 33.7842C107.74 32.1816 104.225 29.676 104.779 26.2936C105.205 23.6927 107.993 22.1164 110.609 21.781C114.454 21.288 118.795 23.0326 120.295 26.6038C121.795 30.175 119.119 35.1121 115.246 34.9603C118.505 38.1815 119.687 43.332 118.159 47.6498C117.392 49.818 114.072 49.9446 112.374 48.3929C110.675 46.8411 110.187 44.4022 109.792 42.1369C107.881 43.3752 105.664 44.1388 103.396 44.34C104.466 44.7 105.365 45.5381 105.798 46.5802C103.909 45.1063 101.704 44.0394 99.3753 43.4727C98.5286 46.3161 97.6727 49.2638 98.0625 52.2047C98.4526 55.1457 100.444 58.0927 103.367 58.6132C109.992 59.7926 114.53 48.3407 121.231 48.9556C123.991 49.2089 126.077 47.9832 127.079 45.401C128.081 42.8189 127.173 39.625 124.963 37.9536C123.65 38.015 122.387 36.9235 122.259 35.6156C122.131 34.308 123.157 32.9924 124.458 32.798C121.697 28.8645 122.392 22.9051 125.984 19.7115C129.577 16.518 135.582 16.5219 139.171 19.72C137.205 16.5505 139.068 11.7618 142.635 10.666C146.201 9.57026 150.388 12.3842 150.805 16.0892C151.223 19.7942 147.871 23.4357 144.139 23.4208C144.76 26.2879 147.388 28.6003 150.313 28.8542C149.062 30.2988 146.668 28.9374 145.631 27.3327C144.595 25.7279 143.611 23.6418 141.708 23.4641C144.046 26.2177 145.588 29.6379 146.104 33.212C144.493 30.7126 143.338 27.9203 142.714 25.0134C142.943 27.3385 142.508 29.7248 141.474 31.8203C142.692 31.2352 144.037 32.7863 143.841 34.1218C143.645 35.4574 142.571 36.462 141.613 37.4136C138.885 40.1224 136.517 44.2363 138.316 47.632C139.528 49.9204 142.178 50.9514 144.363 52.3437C149.071 55.3447 152.029 60.5461 153.46 65.9407C154.89 71.3349 154.96 76.9831 155.021 82.5632C155.153 94.507 155.284 106.45 155.415 118.394C155.459 122.332 155.25 126.839 152.194 129.326C154.062 126.735 154.87 123.403 154.395 120.245C151.258 130.852 148.793 141.457 147.934 153.751C147.076 166.045 148.774 171.196 145.164 187.957C144.839 189.466 145.549 191.245 146.447 192.688C148.016 195.21 153.94 196.622 152.809 198.68C151.365 201.307 145.04 200.689 141.051 200.506C139.412 200.431 137.65 200.163 136.476 199.016C135.016 197.591 134.934 195.313 134.939 193.274C134.99 171.631 134.166 149.986 132.471 128.409C132.147 145.123 131.82 161.875 129.706 178.457C129.111 183.129 127.906 188.017 128.094 192.688C128.196 195.231 129.377 197.956 129.788 200.506C130.114 202.532 128.643 203.228 127.079 203.114C126.665 203.084 126.336 203.431 125.91 203.404C125.557 203.381 125.2 203.142 124.8 203.114C124.373 203.084 123.9 203.264 123.441 203.228C123.098 203.201 123.02 202.916 122.404 202.916C121.788 202.916 121.604 203.107 120.989 203.011C120.373 202.914 119.255 203.676 118.695 202.833C117.682 201.309 120.295 197.226 120.141 195.099C119.986 192.972 119.176 186.194 119.112 184.394C118.56 168.839 115.153 139.163 115.153 139.163C115.153 139.163 113.164 162.747 106.448 176.93C104.782 180.448 102.513 186.238 104.779 189.22C107.045 192.203 105.744 194.848 106.555 197.886C107.203 200.312 108.82 202.388 108.969 205.275C109.042 206.701 106.94 206.396 106.733 206.25C106.526 206.104 106.177 205.269 106.001 205.341C105.739 205.448 106.433 206.193 105.606 206.707C104.779 207.222 104.449 206.656 104.057 206.825C103.674 206.99 103.471 207.504 103.035 207.43C102.154 207.281 102.105 206.931 102.012 206.962C101.916 206.994 102.058 207.54 101.697 207.644C101.336 207.748 100.289 207.293 100.077 207.087C99.7657 206.784 99.8785 207.885 99.4615 207.832C97.7625 207.615 97.1808 206.055 97.3375 205.128C96.4448 207.268 95.2095 208.672 93.0387 209.448C92.5468 209.624 92.2839 209.071 92.0343 209.099C91.8972 209.115 92.1484 209.55 91.7384 209.683C91.3284 209.816 91.1309 209.766 90.6117 209.612C90.0925 209.458 90.2259 208.151 90.0989 208.151C89.972 208.151 89.9784 208.825 89.7515 209.015C89.3157 209.381 89.0658 209.413 88.6883 208.918C88.477 208.641 88.7242 208.182 88.5739 208.151C88.4718 208.13 88.2795 208.683 87.9302 208.766C87.3184 208.911 87.1188 208.967 86.6517 208.335C86.4475 208.059 86.8342 207.291 86.5882 207.222C86.342 207.153 86.0368 208.434 85.7185 208.672C85.4005 208.91 85.1883 208.704 84.9006 208.487C83.31 205.458 85.613 201.975 87.2013 198.945C91.6921 190.38 90.5639 179.982 88.1378 170.622C85.7118 161.262 82.0842 152.047 81.8941 142.38C81.8199 138.615 82.2722 134.824 81.7542 131.094C81.19 127.03 79.5021 123.223 78.272 119.31C75.9352 111.875 75.248 104.027 74.9426 96.2405C74.7018 90.1091 74.7 83.8782 76.3094 77.9565C77.9188 72.0344 81.324 66.3816 86.5882 63.2211C89.8711 61.2502 93.9415 60.1425 96.0618 56.9553C98.0453 53.9739 97.6991 50.0759 97.2768 46.5207C95.8732 46.2658 94.8317 44.7512 95.0973 43.3507C95.3626 41.9501 96.8861 40.9206 98.2857 41.1963C97.6791 40.0111 97.0725 38.8258 96.466 37.6408C96.8542 38.2048 98.7282 41.5843 98.6105 37.2646C98.7586 38.3376 99.022 38.663 99.3005 40.4432Z" fill="white"/>
<path fill-rule="evenodd" clip-rule="evenodd" d="M91.2122 116.726C90.6047 117.078 89.8178 117.534 89.3124 117.057C87.9321 115.756 85.6311 115.585 84.0592 116.636L83.9653 116.701L83.8908 117.583C85.4625 116.401 87.8818 116.536 89.3124 117.884C89.7659 118.312 90.4467 117.989 91.0205 117.664L91.3422 117.48C92.9599 116.599 95.0884 116.741 96.5681 117.842C97.3961 118.458 98.3918 118.069 99.4229 117.667C100.284 117.331 101.17 116.985 102.003 117.208C102.393 117.312 102.777 117.536 103.153 117.756C103.842 118.159 104.506 118.546 105.13 118.151C106.365 117.367 108.071 117.407 109.269 118.247L109.16 117.607L109.113 117.316C107.926 116.577 106.312 116.573 105.13 117.324C104.506 117.719 103.842 117.332 103.153 116.929C102.777 116.709 102.393 116.484 102.003 116.381C101.17 116.158 100.284 116.504 99.4229 116.84C98.3918 117.242 97.3961 117.63 96.5681 117.015C95.0581 115.892 92.8728 115.766 91.2438 116.708L91.2122 116.726ZM91.2005 126.133C90.6068 126.508 89.838 126.993 89.3148 126.536C87.8854 125.289 83.9172 127.269 83.9172 127.269C84.1564 127.377 84.7044 127.265 85.38 127.128C86.653 126.869 88.3789 126.518 89.3467 127.363C89.8162 127.773 90.4841 127.424 91.045 127.077L91.3594 126.881C92.9421 125.938 95.0743 125.999 96.5954 127.042C97.4461 127.625 98.4265 127.199 99.4413 126.757C100.289 126.389 101.161 126.009 102.002 126.199C102.395 126.288 102.787 126.498 103.172 126.703C103.876 127.079 104.554 127.441 105.162 127.022L105.247 126.965C105.941 126.516 107.474 126.796 108.865 127.049C109.876 127.233 110.811 127.403 111.292 127.269C111.292 127.269 106.284 125.4 105.131 126.195C104.523 126.614 103.845 126.252 103.14 125.876C102.756 125.671 102.363 125.462 101.97 125.373C101.129 125.182 100.257 125.562 99.4094 125.931C98.3946 126.372 97.4145 126.799 96.5635 126.215C95.0115 125.151 92.8231 125.109 91.2315 126.114L91.2005 126.133ZM91.6961 92.1355C91.153 92.5265 90.3001 92.7684 89.888 92.2416C88.5942 90.5871 85.5762 90.8607 84.601 92.7203C85.7406 92.0895 87.0838 91.4424 88.2893 91.9361C88.6248 92.0735 88.9327 92.2946 89.2372 92.5136C89.7448 92.8779 90.2434 93.2361 90.8454 93.1898C91.2931 93.1554 91.6795 92.8963 92.0638 92.6384C92.4766 92.3618 92.8869 92.0864 93.3689 92.0919C93.9041 92.0977 94.3396 92.4458 94.7756 92.7939C95.2102 93.1407 95.6447 93.4879 96.178 93.4965C96.6147 93.5035 97.0121 93.2775 97.4059 93.0533C97.8463 92.8028 98.2821 92.5547 98.7629 92.6378C99.3367 92.7371 99.6814 93.2499 100.027 93.7629C100.37 94.2735 100.713 94.7845 101.283 94.8896C101.621 94.9519 101.955 94.8489 102.281 94.7234L102.605 94.5958C103.366 94.2993 104.216 94.1349 105.001 94.3631C105.676 94.559 106.276 95.1049 106.435 95.7725C106.426 95.6241 106.414 95.4763 106.401 95.3291L106.381 94.4855C105.517 93.7715 104.308 93.4943 103.218 93.7617C103.032 93.8077 102.848 93.8684 102.664 93.9295C102.31 94.0466 101.957 94.1631 101.587 94.172C101.025 94.1852 100.387 93.8175 100.383 93.2554L100.381 93.195C100.32 92.2633 99.0024 91.9551 98.0748 92.198C97.8776 92.2495 97.6773 92.3124 97.4761 92.3756C96.7092 92.6157 95.9247 92.8617 95.2289 92.5191C94.9599 92.3866 94.7327 92.175 94.5079 91.9656C94.1933 91.6721 93.8829 91.3829 93.4683 91.3203C92.9592 91.2437 92.506 91.5359 92.0767 91.853L91.6961 92.1355ZM84.6461 85.4379C85.0163 84.5534 85.0061 83.5764 84.962 82.7938C84.962 82.7938 84.3201 83.9235 83.4664 83.8018L83.4063 83.7954C83.022 83.7675 82.6194 83.987 82.2403 84.194C81.7285 84.4731 81.2593 84.7292 80.9352 84.3213C80.1397 83.3209 78.8394 82.7435 77.5634 82.8241C77.2009 82.8468 76.8172 82.9324 76.5658 83.1943C76.3143 83.4562 76.2717 83.938 76.5599 84.1588C76.8553 83.4203 77.8869 83.2783 78.6244 83.577C79.0449 83.7472 79.4141 84.0128 79.7836 84.279C80.0624 84.4795 80.3417 84.6804 80.6435 84.8411C81.3461 85.2146 82.3329 85.3035 82.8411 84.6914L82.8806 84.647C83.2775 84.2302 84.0444 84.2379 84.4226 84.6773C84.602 84.8856 84.6722 85.1658 84.6461 85.4379ZM88.2151 74.1731C87.3485 74.5625 86.3914 73.8768 85.7461 73.1798L85.4367 72.8474C84.8672 72.2463 84.2223 71.6655 83.4216 71.7087C82.9892 71.732 82.5915 71.943 82.221 72.1669C81.1152 72.8342 80.1047 73.6591 79.2298 74.6088C80.0786 74.6809 80.7855 74.097 81.4859 73.5183C82.2216 72.9108 82.95 72.3088 83.8282 72.4787C84.4983 72.6082 84.9648 73.1525 85.4297 73.6947C85.9075 74.2522 86.3834 74.8079 87.0777 74.9094C87.538 74.9769 87.9891 74.8204 88.435 74.6659C88.5432 74.6285 88.6515 74.5911 88.7595 74.5567C90.9027 73.8787 93.4211 74.6067 94.871 76.3234C95.5331 77.1073 96.7693 76.7353 97.7058 76.2621L97.9634 76.129C98.9003 75.6561 100.14 75.2903 100.796 76.0793L100.858 76.1514C101.912 77.3296 103.763 77.2272 105.37 76.9555L105.656 76.9049C105.673 77.0008 105.689 77.1057 105.705 77.2186L105.737 77.455C106.082 76.2422 105.946 75.9652 105.656 76.6077C105.136 76.1416 104.121 76.2836 103.44 76.4363L103.377 76.4495C102.704 76.5859 101.848 76.5326 101.596 75.9042C101.136 74.7542 99.4563 74.9149 98.3115 75.389L98.1637 75.4497C97.0419 75.9051 95.649 76.348 94.8348 75.4856C93.188 73.7416 90.4035 73.1893 88.2151 74.1731ZM106.125 72.9213C106.138 72.5352 106.179 72.0758 106.252 71.5538L106.271 71.4269C105.482 70.9344 104.48 70.7958 103.586 71.0552C102.851 71.2686 102.232 70.7617 101.597 70.2425C101.032 69.7801 100.455 69.3081 99.7731 69.3253C99.2238 69.3394 98.7733 69.6685 98.3176 70.0015C97.9496 70.2704 97.5779 70.5418 97.148 70.6519C96.1004 70.92 95.1363 70.1867 94.2791 69.4685L93.9375 69.1805C92.9982 68.3909 91.5148 67.7527 90.6424 68.6157L90.5866 68.6681C89.8509 69.3256 88.6487 69.0922 87.7793 68.5966C87.5036 68.4399 87.2375 68.2605 86.9716 68.0818C86.377 67.6816 85.7836 67.282 85.0896 67.1338C84.0855 66.9192 82.7911 67.6061 82.9263 68.623C83.6623 67.8438 84.9007 67.5893 85.8848 68.0146C86.3481 68.2152 86.7802 68.55 87.2053 68.8797C87.9793 69.4795 88.7303 70.0619 89.6062 69.781C89.8723 69.6957 90.1023 69.5347 90.3333 69.3734C90.5283 69.237 90.724 69.1002 90.9423 69.0088C92.0494 68.5445 93.0804 69.3333 94.124 70.1312C95.1323 70.9025 96.1523 71.6823 97.2633 71.3505C97.6758 71.2272 98.037 70.9561 98.3934 70.6884C98.8813 70.322 99.3603 69.9625 99.9485 70C100.55 70.0383 101.012 70.4854 101.455 70.9132C101.484 70.9408 101.513 70.9687 101.542 70.996L101.664 71.1122C102.173 71.5882 102.942 71.9964 103.535 71.6299C104.484 71.0429 105.766 71.8574 106.125 72.9213ZM106.965 68.2535C107.159 68.0198 107.342 67.7236 107.514 67.3648C107.745 66.8796 107.749 66.0449 107.514 66.5377C107.228 67.1357 106.568 67.6107 105.922 67.4589C105.638 67.3921 105.395 67.2179 105.153 67.0443C104.885 66.8511 104.617 66.6588 104.295 66.6165C103.931 66.569 103.588 66.7229 103.246 66.8762C103.136 66.9253 103.026 66.9744 102.917 67.0167C102.464 67.1909 101.839 67.1918 101.617 66.7612C100.853 65.2758 98.4777 65.0062 97.3998 66.2825C96.9557 66.8082 96.0735 66.4711 95.6064 65.9658C95.4899 65.8394 95.3788 65.7029 95.2678 65.5659C94.9339 65.1543 94.5981 64.7403 94.0997 64.6032C93.5385 64.4487 92.9948 64.7008 92.4456 64.955C91.95 65.1847 91.4501 65.4162 90.9288 65.3537C90.3921 65.2893 89.9668 64.9323 89.5433 64.5769C89.4007 64.4573 89.2581 64.3377 89.1118 64.2294C88.5304 63.8004 87.5892 63.5925 87.1712 64.1813C87.8891 64.2868 88.512 64.6732 89.1357 65.0602C89.3992 65.2236 89.6629 65.3871 89.9337 65.5294C90.8466 66.0096 92.1128 66.1961 92.7995 65.4266L92.8406 65.3834C93.3466 64.8921 94.2482 65.2957 94.7367 65.8327C94.8259 65.9308 94.9142 66.0341 95.0032 66.1384C95.4144 66.6214 95.8407 67.1216 96.4522 67.1768C97.0005 67.2265 97.4718 66.895 97.9435 66.5631C98.4121 66.2332 98.8813 65.9032 99.4265 65.9467C99.985 65.9912 100.396 66.407 100.809 66.8241C101.213 67.2332 101.619 67.6432 102.165 67.7042C102.458 67.7368 102.746 67.6601 103.034 67.5828C103.154 67.5509 103.274 67.5187 103.395 67.4945C104.517 67.2694 105.642 67.7315 106.685 68.2265L106.899 68.3292L106.965 68.2535ZM86.3132 77.9555C86.4742 78.0438 86.6281 78.1919 86.6459 78.3861C86.6637 78.5805 86.4683 78.7847 86.307 78.6967C85.6784 78.3532 84.9178 78.6194 84.2852 78.954C84.211 78.9933 84.1365 79.0337 84.0616 79.0742C83.4989 79.3787 82.9181 79.6931 82.2986 79.636C81.7622 79.5867 81.2639 79.265 80.7766 78.9503C80.1292 78.5326 79.5012 78.1269 78.828 78.3885C78.4867 78.5213 78.231 78.8034 77.9737 79.0877C77.7826 79.2984 77.5903 79.5106 77.3616 79.6633C77.2962 79.7072 77.2217 79.7471 77.1457 79.7348C76.9368 79.7007 76.9463 79.3665 77.0368 79.1601C77.6259 77.8187 79.3049 77.1916 80.5346 77.8534C80.749 77.9687 80.9499 78.1162 81.1501 78.2637C81.4954 78.5176 81.8389 78.77 82.2446 78.8516C82.9012 78.9838 83.5418 78.6369 84.1453 78.31C84.1864 78.2876 84.2278 78.2652 84.2686 78.2432C84.9077 77.8994 85.6765 77.6062 86.3132 77.9555ZM91.4069 79.6912C92.3235 80.1911 93.5275 80.131 94.3877 79.5422C94.9995 79.1236 95.8499 79.4769 96.4267 79.9412C96.5408 80.0329 96.6537 80.1301 96.7668 80.2273C97.2259 80.6223 97.692 81.0237 98.2842 81.1077C98.7666 81.1761 99.2324 81.0182 99.7013 80.859C100.089 80.7278 100.478 80.5956 100.881 80.5898C101.554 80.5803 102.158 80.9182 102.753 81.25C102.88 81.3212 103.007 81.392 103.134 81.4595C103.854 81.8397 104.781 82.1004 105.452 81.6429L102.386 80.353C101.964 80.1752 101.529 79.9945 101.07 79.9758C100.652 79.959 100.242 80.077 99.8344 80.1945C99.3634 80.3303 98.8945 80.4653 98.417 80.391C97.8168 80.2975 97.3437 79.8992 96.8723 79.5026C96.7171 79.372 96.5623 79.2417 96.4031 79.1224C95.7606 78.6412 94.7514 78.3618 94.2095 78.9503C93.7247 79.4766 92.8627 79.4591 92.1895 79.2012C91.8709 79.0791 91.5716 78.9145 91.2726 78.7501C90.9398 78.567 90.6071 78.3839 90.2483 78.2597C89.5669 78.0239 88.6929 78.0674 88.2639 78.6384C88.2222 78.8243 88.447 78.9749 88.6408 78.9641C88.7647 78.9571 88.8803 78.9105 88.9962 78.8639C89.0612 78.8378 89.1262 78.8114 89.1931 78.7921C89.7813 78.6219 90.3182 78.9828 90.8512 79.3413C91.0364 79.4658 91.2208 79.5897 91.4069 79.6912ZM107.064 109.229C106.817 109.865 105.944 109.96 105.348 109.665C104.999 109.492 104.703 109.231 104.407 108.97C104.197 108.786 103.987 108.6 103.757 108.446C103.203 108.073 102.391 107.921 101.93 108.412C100.786 109.633 98.9708 110.123 97.3976 109.638C96.7957 109.452 96.2424 109.14 95.6883 108.828V108.828C95.3779 108.653 95.0676 108.478 94.7483 108.326C93.8584 107.899 92.7989 107.65 91.9111 108.081C91.5722 108.245 91.2849 108.496 90.9972 108.748C90.7506 108.963 90.5038 109.179 90.2238 109.341C89.2746 109.89 88.0507 109.73 87.1145 109.158C86.9538 109.06 86.7983 108.95 86.6428 108.841C86.288 108.59 85.9335 108.34 85.5214 108.23C84.9289 108.073 84.1533 108.375 84.0886 109.006C83.6722 108.378 84.3422 107.478 85.0748 107.419C85.8075 107.36 86.4733 107.822 87.0752 108.259C87.6775 108.695 88.3546 109.147 89.0851 109.063C89.6966 108.993 90.1707 108.575 90.6516 108.152C90.9776 107.865 91.3063 107.575 91.6829 107.389C92.932 106.773 94.399 107.404 95.6187 108.081C96.838 108.758 98.202 109.513 99.5323 109.12C100.056 108.965 100.51 108.646 100.964 108.327H100.965C101.141 108.203 101.316 108.079 101.496 107.966C102.141 107.557 102.948 107.263 103.642 107.574C103.946 107.711 104.19 107.948 104.434 108.185C104.544 108.292 104.655 108.4 104.771 108.498C105.407 109.035 106.247 109.303 107.064 109.229ZM113.528 134.564C112.817 135.484 111.378 135.169 110.289 134.76C109.201 134.351 107.774 134.016 107.04 134.917C106.622 135.429 105.797 135.348 105.219 135.027C104.972 134.889 104.744 134.718 104.516 134.546C104.214 134.319 103.911 134.091 103.563 133.944C102.21 133.373 100.737 134.167 99.4219 134.876L99.2928 134.946L99.2082 134.991L99.1886 135.002C97.8165 135.736 95.8824 136.204 94.8906 135.006C94.2129 134.186 92.8961 134.394 91.943 134.866C91.7498 134.961 91.5566 135.066 91.3627 135.171H91.3624C90.6013 135.583 89.8285 136.001 88.9839 135.926C88.2347 135.86 87.5592 135.414 86.8977 134.977C86.0586 134.423 85.2423 133.884 84.3275 134.156C84.0401 134.241 83.781 134.404 83.5234 134.566C83.1962 134.771 82.8714 134.976 82.4933 135.019C82.4946 134.081 83.5194 133.415 84.4572 133.432C85.3551 133.447 86.1758 133.899 86.9654 134.333L87.0706 134.391C87.8925 134.842 88.7932 135.279 89.7251 135.172C90.3685 135.099 90.9374 134.776 91.5075 134.453C91.7528 134.314 91.9988 134.175 92.2505 134.056C93.0874 133.659 94.2282 133.539 94.8198 134.251C95.5901 135.178 97.0345 135.195 98.1698 134.789C98.7059 134.598 99.2119 134.332 99.7173 134.067C100.282 133.77 100.846 133.474 101.452 133.281C102.601 132.915 104.063 133.043 104.732 134.045C105.142 134.66 106.072 134.616 106.753 134.329C106.942 134.25 107.129 134.156 107.316 134.063C107.8 133.821 108.284 133.579 108.817 133.576C109.384 133.572 109.935 133.838 110.474 134.099C111.189 134.445 111.883 134.78 112.564 134.459L113.528 134.564ZM98.3057 101.15C97.5344 101.285 96.8432 100.872 96.1428 100.453C95.5414 100.093 94.9333 99.7298 94.2617 99.7055C93.4625 99.6767 92.7455 100.129 92.0356 100.577C91.2539 101.07 90.4805 101.558 89.6154 101.393C89.2713 101.327 88.96 101.161 88.6478 100.994C88.493 100.911 88.3375 100.828 88.178 100.757C86.9826 100.227 85.5023 100.44 84.4977 101.286C84.6903 100.396 85.5812 99.7874 86.4739 99.7144C87.3663 99.6417 88.2424 100.008 88.9987 100.496C89.6427 100.912 90.5007 100.741 91.1827 100.393C91.4557 100.254 91.7163 100.089 91.9764 99.9251C92.3665 99.6788 92.7559 99.4332 93.1859 99.2737C94.3831 98.83 95.8217 99.1643 96.7113 100.093C97.2526 100.658 98.1775 100.506 98.8954 100.209C98.9984 100.166 99.1024 100.122 99.2067 100.076C99.8292 99.8064 100.473 99.5274 101.119 99.681C101.692 99.8175 102.147 100.268 102.591 100.709C103.133 101.247 103.661 101.771 104.374 101.697C104.606 101.673 104.824 101.583 105.041 101.492C105.201 101.426 105.361 101.359 105.528 101.319C105.923 101.223 106.442 101.359 106.526 101.762C105.397 102.193 104.08 102.61 103.042 101.985C102.717 101.789 102.44 101.5 102.167 101.215C101.733 100.762 101.308 100.319 100.711 100.267C100.224 100.225 99.7899 100.466 99.3502 100.71C99.0138 100.897 98.6743 101.085 98.3057 101.15ZM93.1764 86.1898C93.5885 85.9294 94.0007 85.6691 94.4818 85.6301C95.2142 85.571 95.83 86.0291 96.4267 86.4732H96.427C96.5598 86.5719 96.692 86.6704 96.8242 86.7621C97.5494 87.265 98.7405 87.522 99.2192 86.801C99.4995 86.3787 100.17 86.3539 100.637 86.5836C100.977 86.7507 101.247 87.0126 101.516 87.2742C101.617 87.3723 101.718 87.4705 101.823 87.5637C102.261 87.9535 102.801 88.2718 103.4 88.3264C103.998 88.3813 104.653 88.1206 104.915 87.6078C103.497 87.897 101.922 87.2635 101.157 86.0966C100.771 85.5081 99.816 85.7915 99.191 86.1512C98.5657 86.5112 97.6463 86.8424 97.206 86.2889C96.1799 84.9987 93.9624 84.7702 92.6673 85.8212C92.0353 86.3339 91.041 85.9926 90.4059 85.4833C90.2394 85.3495 90.079 85.2045 89.9183 85.0591C89.4669 84.6503 89.0146 84.2406 88.4224 84.0879C87.3819 83.8193 86.1896 84.6175 86.1095 85.6363C86.4021 85.6709 86.7091 85.5182 86.8452 85.2707C87.1479 84.7193 87.9765 84.616 88.581 84.858C89.0615 85.0499 89.4452 85.3952 89.8263 85.7384C89.9245 85.827 90.0226 85.9153 90.1223 86.0009C90.6083 86.4186 91.21 86.7989 91.8641 86.7495C92.3481 86.7133 92.7624 86.4517 93.1764 86.1898Z" fill="#FFB61D"/>
<path fill-rule="evenodd" clip-rule="evenodd" d="M99.3005 40.4432C101.13 36.0652 106.059 33.2043 110.772 33.7842C107.74 32.1816 104.225 29.676 104.779 26.2936C105.205 23.6927 107.993 22.1164 110.609 21.781C114.454 21.288 118.795 23.0326 120.295 26.6038C121.795 30.175 119.119 35.1121 115.246 34.9603C118.505 38.1815 119.687 43.332 118.159 47.6498C117.392 49.818 114.072 49.9446 112.374 48.3929C110.675 46.8411 110.187 44.4022 109.792 42.1369C107.881 43.3752 105.664 44.1388 103.396 44.34C104.466 44.7 105.365 45.5381 105.798 46.5802C103.909 45.1063 101.704 44.0394 99.3753 43.4727C98.5286 46.3161 97.6727 49.2638 98.0625 52.2047C98.4526 55.1457 100.444 58.0927 103.367 58.6132C106.737 59.213 109.566 56.5456 112.415 53.8601C115.167 51.2654 117.938 48.6535 121.231 48.9556C123.991 49.2089 126.077 47.9832 127.079 45.401C128.081 42.8189 127.173 39.625 124.963 37.9536C123.65 38.015 122.387 36.9235 122.259 35.6156C122.131 34.308 123.157 32.9924 124.458 32.798C121.697 28.8645 122.392 22.9051 125.984 19.7115C129.577 16.518 135.582 16.5219 139.171 19.72C137.205 16.5505 139.068 11.7618 142.635 10.666C146.201 9.57026 150.388 12.3842 150.805 16.0892C151.223 19.7942 147.871 23.4357 144.139 23.4208C144.76 26.2879 147.388 28.6003 150.313 28.8542C149.062 30.2988 146.668 28.9374 145.631 27.3327C145.483 27.1036 145.336 26.8646 145.188 26.6228C144.295 25.1712 143.339 23.6165 141.708 23.4641C144.046 26.2177 145.588 29.6379 146.104 33.212C144.493 30.7126 143.338 27.9203 142.714 25.0134C142.943 27.3385 142.508 29.7248 141.474 31.8203C142.692 31.2352 144.037 32.7863 143.841 34.1218C143.655 35.392 142.674 36.3626 141.754 37.2731C141.707 37.3201 141.66 37.367 141.613 37.4136C138.885 40.1224 136.517 44.2363 138.316 47.632C139.247 49.3902 141.027 50.4058 142.793 51.4139C143.325 51.7178 143.856 52.021 144.363 52.3437C149.071 55.3447 152.029 60.5461 153.46 65.9407C154.89 71.3349 154.96 76.9831 155.021 82.5632L155.415 118.394C155.459 122.332 155.25 126.839 152.194 129.326C154.062 126.735 154.87 123.403 154.395 120.245C151.258 130.852 148.793 141.457 147.934 153.751C147.656 157.742 147.646 160.981 147.638 164.108C147.619 170.613 147.602 176.637 145.164 187.957C144.839 189.466 145.549 191.245 146.447 192.688C147.127 193.781 148.625 194.665 150.012 195.484C151.826 196.555 153.45 197.514 152.809 198.68C151.502 201.059 146.19 200.776 142.237 200.567C141.825 200.545 141.428 200.523 141.051 200.506C139.412 200.431 137.65 200.163 136.476 199.016C135.016 197.591 134.934 195.313 134.939 193.274C134.99 171.631 134.166 149.986 132.471 128.409C132.147 145.123 131.82 161.875 129.706 178.457C129.53 179.846 129.299 181.253 129.067 182.669C128.518 186.015 127.962 189.406 128.094 192.688C128.154 194.182 128.586 195.739 129.016 197.286C129.318 198.372 129.618 199.454 129.788 200.506C130.114 202.532 128.643 203.228 127.079 203.114C126.872 203.099 126.687 203.178 126.5 203.257C126.312 203.337 126.123 203.417 125.91 203.404C125.738 203.393 125.565 203.33 125.386 203.266C125.199 203.198 125.005 203.128 124.8 203.114C124.592 203.099 124.373 203.134 124.151 203.17C123.916 203.208 123.677 203.246 123.441 203.228C123.301 203.217 123.205 203.163 123.098 203.103C122.944 203.016 122.768 202.916 122.404 202.916C122.143 202.916 121.959 202.951 121.787 202.983C121.554 203.026 121.343 203.066 120.989 203.011C120.783 202.978 120.521 203.042 120.243 203.109C119.688 203.244 119.068 203.394 118.695 202.833C118.121 201.969 118.713 200.28 119.305 198.593C119.756 197.306 120.207 196.019 120.141 195.099C120.075 194.19 119.889 192.432 119.693 190.576C119.43 188.089 119.149 185.425 119.112 184.394C118.56 168.839 117.357 153.164 114.925 137.79C110.926 140.504 106.558 142.674 101.979 144.221C100.369 144.765 99.9902 146.828 99.8785 148.522C99.0607 160.924 98.2992 173.749 102.561 185.426C108.091 170.996 112.252 156.044 114.97 140.833C113.638 153.184 110.661 165.357 106.141 176.93C104.619 180.827 102.513 186.238 104.779 189.22C106.203 191.094 106.219 192.835 106.235 194.624C106.244 195.682 106.254 196.756 106.555 197.886C106.802 198.809 107.189 199.683 107.583 200.57C108.222 202.011 108.876 203.487 108.969 205.275C109.042 206.701 106.94 206.396 106.733 206.25C106.646 206.188 106.533 206.004 106.419 205.816C106.262 205.56 106.103 205.3 106.001 205.341C105.908 205.379 105.936 205.497 105.973 205.657C106.04 205.948 106.139 206.376 105.606 206.707C105.093 207.026 104.772 206.93 104.508 206.852C104.346 206.803 104.206 206.761 104.057 206.825C103.907 206.89 103.784 207.008 103.665 207.123C103.479 207.302 103.3 207.475 103.035 207.43C102.41 207.324 102.204 207.118 102.103 207.017C102.062 206.976 102.039 206.953 102.012 206.962C101.98 206.973 101.974 207.043 101.968 207.135C101.954 207.314 101.935 207.575 101.697 207.644C101.336 207.748 100.348 207.329 100.135 207.123C99.9813 206.973 99.9169 207.158 99.8405 207.376C99.7626 207.599 99.6722 207.858 99.4615 207.832C97.7625 207.615 97.1808 206.055 97.3375 205.128C96.4448 207.268 95.2095 208.672 93.0387 209.448C92.7369 209.556 92.5216 209.389 92.3425 209.251C92.2294 209.164 92.1309 209.088 92.0343 209.099C91.984 209.105 91.9859 209.167 91.9883 209.249C91.9926 209.393 91.9984 209.599 91.7384 209.683C91.3284 209.816 91.1309 209.766 90.6117 209.612C90.2658 209.509 90.2097 208.895 90.1732 208.497C90.1548 208.297 90.1413 208.151 90.0989 208.151C90.0416 208.151 90.0112 208.289 89.9744 208.458C89.93 208.662 89.8757 208.911 89.7515 209.015C89.3157 209.381 89.0658 209.413 88.6883 208.918C88.5705 208.764 88.5951 208.553 88.6141 208.391C88.6291 208.263 88.6404 208.165 88.5739 208.151C88.5343 208.143 88.4813 208.221 88.4107 208.324C88.2994 208.488 88.1443 208.715 87.9302 208.766L87.9094 208.771C87.3138 208.912 87.1132 208.96 86.6517 208.335C86.5502 208.198 86.5947 207.94 86.6348 207.706C86.6756 207.469 86.7118 207.257 86.5882 207.222C86.4576 207.185 86.3104 207.529 86.1534 207.895C86.0145 208.218 85.8682 208.56 85.7185 208.672C85.426 208.891 85.2233 208.734 84.9687 208.539C84.9466 208.522 84.9239 208.504 84.9006 208.487C83.4912 205.803 85.1389 202.762 86.6379 199.997L86.6385 199.995L86.6397 199.993C86.8317 199.639 87.0212 199.289 87.2013 198.945C91.6921 190.38 90.5639 179.982 88.1378 170.622C87.511 168.202 86.8035 165.793 86.096 163.382C84.0662 156.468 82.0351 149.549 81.8941 142.38C81.868 141.056 81.907 139.728 81.9462 138.401C82.018 135.955 82.09 133.512 81.7542 131.094C81.3534 128.208 80.3859 125.451 79.4184 122.694C79.0234 121.569 78.6284 120.444 78.272 119.31C75.9352 111.875 75.248 104.027 74.9426 96.2405C74.7018 90.1091 74.7 83.8782 76.3094 77.9565C77.9188 72.0344 81.324 66.3816 86.5882 63.2211C87.5453 62.6464 88.5696 62.145 89.5929 61.6443C92.0791 60.4274 94.5597 59.2133 96.0618 56.9553C98.0453 53.9739 97.6991 50.0759 97.2768 46.5207C95.8732 46.2658 94.8317 44.7512 95.0973 43.3507C95.3626 41.9501 96.8861 40.9206 98.2857 41.1963L96.466 37.6408C96.5028 37.6945 96.5534 37.7739 96.6144 37.8696C97.1934 38.7792 98.7169 41.1727 98.6105 37.2646C98.6779 37.7528 98.769 38.0864 98.8748 38.4725C99.0015 38.935 99.1487 39.4732 99.3005 40.4432ZM150.432 120.613C150.813 120.157 150.96 119.555 151.083 118.974C153.023 109.799 151.643 100.573 147.253 92.2849C137.514 93.1181 127.693 92.9813 117.981 91.8767C116.544 91.7132 115.626 93.3395 115.169 94.7109C112.632 102.332 111.728 110.491 112.537 118.482C112.677 119.86 114.332 120.459 115.7 120.678C118.838 121.179 120.571 120.858 123.14 120.381H123.141H123.141C125.114 120.014 127.581 119.557 131.556 119.31C132.025 119.28 132.004 117.675 131.977 115.628C131.948 113.444 131.913 110.758 132.459 108.949C134.144 137.821 135.322 166.721 135.992 195.634C136.013 196.534 136.052 197.494 136.571 198.23C137.307 199.273 138.734 199.514 140.008 199.602C143.956 199.876 151.481 200.036 151.79 198.591C151.596 197.3 150.127 196.565 148.75 195.877C148.475 195.739 148.203 195.604 147.946 195.465C145.738 194.28 144.566 191.714 144.345 189.22C144.147 186.991 144.581 184.769 145.011 182.566C145.062 182.304 145.114 182.041 145.164 181.779C146.468 174.956 147.025 167.991 146.821 161.048C146.803 160.446 146.78 159.844 146.757 159.243C146.675 157.132 146.592 155.021 146.756 152.917C146.958 150.298 147.538 147.728 148.116 145.162L148.116 145.161L148.117 145.159L148.117 145.158L148.117 145.157C148.236 144.629 148.355 144.103 148.47 143.575C150.043 136.393 151.013 129.079 151.365 121.735C145.619 124.233 138.683 123.796 133.296 120.596C137.97 122.437 143.137 122.397 148.101 121.625C148.958 121.491 149.878 121.279 150.432 120.613ZM154.287 75.9266C153.68 70.5989 152.417 65.346 150.537 60.3237C150.195 59.4132 149.667 58.7266 149.101 57.9912C148.942 57.7852 148.78 57.5751 148.619 57.3549C147.272 55.5204 145.325 54.3226 143.368 53.1183C141.839 52.1771 140.303 51.232 139.043 49.9759C137.313 51.5776 134.917 52.4369 132.563 52.2995C130.208 52.1621 127.929 51.0299 126.398 49.2381C126.285 49.1056 126.084 49.1028 125.91 49.1123C123.015 49.2687 120.105 49.7959 117.481 51.0287C114.857 52.2615 112.528 54.2441 111.215 56.8274C110.678 57.883 110.318 59.018 109.981 60.1532C108.277 65.895 107.104 71.794 106.482 77.7504C106.445 78.107 106.422 78.5066 106.652 78.782C106.807 78.9678 107.047 79.0565 107.277 79.1304C109.3 79.7787 111.494 79.8836 113.569 79.4315L107.788 78.6183C107.445 78.5701 106.999 78.2039 107.277 77.9957C107.367 77.9276 107.492 77.9387 107.605 77.9528L114.415 78.8053C114.718 78.843 114.897 78.4756 114.947 78.1748C115.091 77.3036 114.979 76.3866 114.869 75.4807C114.703 74.1225 114.54 72.7885 115.25 71.6701C115.873 77.7317 115.759 83.869 114.911 89.9033C114.812 90.6077 115.733 90.9548 116.44 91.0386C126.117 92.1858 135.899 92.4468 145.624 91.8169C147.144 91.7184 148.293 90.2639 148.564 88.7671C148.836 87.2699 148.437 85.7415 148.041 84.2723L145.062 73.2096C144.882 72.5398 144.746 71.7087 145.269 71.253L147.076 78.2285C147.151 78.5161 147.253 78.8391 147.523 78.9651C147.719 79.0574 147.95 79.0151 148.164 78.9706L152.907 77.985C153.307 77.9022 153.734 77.804 154.009 77.5038C154.382 77.0975 154.35 76.4746 154.287 75.9266ZM106.73 70.2361C107.476 66.6855 108.446 62.0675 104.129 63.4833L104.053 63.5082C102.338 64.0706 100.312 64.7354 98.4743 64.1519C96.6098 63.5594 95.0277 62.1346 94.2448 60.3431C94.7419 59.9757 95.3567 60.5862 95.7336 61.076C97.5614 63.4499 101.114 64.3009 103.821 63.0135C105.146 62.3827 105.155 60.5307 104.962 59.0765C102.049 60.0594 98.5056 58.0109 97.9064 54.9979C97.3308 57.0013 95.994 58.7766 94.2267 59.884C93.5621 60.3004 92.8454 60.6227 92.1291 60.9447L92.1288 60.945H92.1285H92.1282V60.9454H92.1279C91.9031 61.0462 91.6783 61.1474 91.4553 61.2514C82.6381 65.3595 76.3986 74.5095 75.7985 84.2115C75.7721 84.6415 75.8592 85.2088 76.2845 85.2787L82.8273 86.3545C82.9055 86.3674 82.9772 86.3818 83.0462 86.3956C83.4001 86.4668 83.6697 86.5207 84.2514 86.2536C84.9463 85.9344 85.077 82.5512 85.0117 81.5028C84.9463 80.454 84.8767 79.116 85.8265 78.6652C85.9132 82.0591 85.3567 85.4143 84.7997 88.7729C84.3474 91.4998 83.8945 94.2291 83.7856 96.9833C83.7503 97.8699 83.7776 98.7592 83.8049 99.6476C83.835 100.626 83.8647 101.603 83.8114 102.574C83.1088 115.374 82.9809 144.43 82.9809 144.43C82.9809 144.43 95.338 143.465 99.8785 142.38C106.572 140.78 110.951 138.827 113.16 137.842C114.172 137.39 114.729 137.142 114.846 137.223C114.438 134.848 113.365 130.205 112.121 124.823C109.68 114.263 106.581 100.854 106.555 96.1262C106.553 95.7983 106.402 95.3573 106.277 94.9939C106.09 94.4524 105.963 94.0831 106.481 94.5177L106.38 90.2928C106.357 89.3182 106.289 87.1825 106.217 86.6995C105.445 81.507 105.8 78.2242 106.065 75.7656C106.171 74.7831 106.263 73.9321 106.263 73.1436C106.263 72.4595 106.484 71.4058 106.73 70.2361ZM122.68 201.598C122.789 202.916 123.691 203.102 124.458 202.466C124.711 202.256 124.804 201.507 124.898 200.75C124.915 200.612 124.932 200.473 124.95 200.338C125.092 200.668 125.113 201.162 125.132 201.62C125.158 202.237 125.181 202.789 125.492 202.789C126.731 202.789 126.533 200.633 126.44 199.613C126.434 199.545 126.428 199.483 126.423 199.426C126.678 199.056 127.089 200.047 126.984 200.619C126.88 201.192 126.866 201.927 127.279 202.338C127.937 202.992 128.953 201.936 129.076 201.017C129.289 199.412 128.747 197.874 128.201 196.322C127.816 195.228 127.429 194.127 127.302 192.993C127.138 191.512 127.423 190.025 127.705 188.56L127.706 188.555C127.72 188.483 127.734 188.411 127.748 188.339C130.306 174.989 130.725 161.334 131.136 147.747L131.956 120.687C125.958 122.131 119.661 122.322 113.587 121.246C113.247 121.187 113.133 121.684 113.171 122.026C113.879 128.353 114.867 134.658 115.854 140.96C117.73 152.926 119.604 164.884 119.552 176.972C119.549 177.8 119.536 178.63 119.524 179.46C119.468 183.149 119.413 186.849 120.141 190.456C120.208 190.789 120.282 191.124 120.356 191.46C120.724 193.13 121.098 194.824 120.687 196.464C120.52 197.127 120.229 197.777 119.939 198.423C119.384 199.66 118.836 200.88 119.194 202.139C119.297 202.5 119.578 202.897 119.947 202.833C120.403 202.755 120.405 202.198 120.407 201.652C120.408 201.102 120.41 200.563 120.874 200.533C120.794 201.351 121.262 202.714 121.797 202.551C122.137 202.551 122.199 201.938 122.265 201.28C122.311 200.823 122.359 200.345 122.504 200.036C122.771 200.467 122.727 200.902 122.694 201.238C122.68 201.377 122.667 201.5 122.68 201.598ZM111.434 112.223C111.402 108.291 112.169 104.401 112.932 100.543C113.553 97.408 114.213 94.177 116.017 91.5375C115.479 91.7908 114.815 91.4014 114.557 90.8659C114.299 90.3305 114.336 89.7061 114.379 89.1133L114.969 80.9317C115.001 80.4892 114.801 79.8465 114.378 79.9811C112.196 80.6751 109.781 80.6113 107.639 79.8029C107.318 79.6818 107.122 80.1546 107.107 80.4969C106.409 96.323 111.483 118.188 111.434 112.223ZM103.277 204.464C103.592 204.42 103.831 205.137 104.029 205.733C104.125 206.024 104.212 206.286 104.295 206.418C104.558 206.841 105.276 206.68 105.529 206.25C105.663 206.022 105.641 205.494 105.623 205.046C105.607 204.649 105.593 204.317 105.694 204.317C106.256 204.317 106.437 204.767 106.61 205.196C106.78 205.62 106.943 206.024 107.458 205.95C107.879 205.889 108.151 205.466 108.27 205.058C108.7 203.58 107.895 202.22 107.074 200.832C106.629 200.082 106.18 199.323 105.919 198.534C105.568 197.476 105.563 196.348 105.557 195.221C105.551 194.035 105.545 192.85 105.136 191.749C104.875 191.044 104.46 190.411 104.046 189.781C103.961 189.652 103.877 189.522 103.793 189.393C99.5314 182.76 98.7632 174.519 98.6105 166.639C98.4722 159.505 98.7411 152.364 99.4158 145.261L96.745 145.643L83.2848 147.568C85.3379 159.727 88.7376 171.612 92.1303 183.468C92.5639 184.983 92.9991 186.501 93.6029 187.957C94.2488 189.513 95.0863 190.99 96.0903 192.343C97.596 194.372 97.4826 197.109 97.3771 199.651L97.3768 199.653V199.655L97.3694 199.837L97.3636 199.975C97.362 200.012 97.3605 200.049 97.359 200.086L97.3556 200.166C97.3531 200.224 97.3507 200.282 97.3482 200.339L97.3415 200.485C97.2289 203.012 97.0992 205.925 99.3005 207.043C99.8424 207.318 99.7678 206.813 99.6755 206.187C99.6041 205.703 99.5219 205.146 99.7068 204.824C99.7669 205.406 99.8338 206.01 100.135 206.512C100.437 207.015 101.044 207.385 101.607 207.222C101.765 207.135 101.7 206.749 101.621 206.285C101.536 205.787 101.436 205.2 101.582 204.798C101.758 205.086 101.835 205.386 101.915 205.698C102.001 206.032 102.09 206.38 102.308 206.744C102.684 207.372 103.634 207.018 103.697 206.436C103.733 206.109 103.595 205.805 103.461 205.507C103.304 205.161 103.151 204.822 103.277 204.464ZM81.6261 127.408C82.4114 117.811 83.1974 108.197 83.0889 98.5685C83.087 98.393 83.0846 98.2176 83.0824 98.0422V98.0416C83.0634 96.5794 83.0447 95.1154 83.1956 93.6618C83.3529 92.1475 83.6948 90.6522 84.2116 89.2197L76.2109 88.2454C76.1002 88.2319 75.9717 88.2246 75.8945 88.3049C75.8362 88.3653 75.8276 88.4567 75.8221 88.5405C74.9564 101.711 76.95 115.063 81.6261 127.408ZM147.799 80.3592L148.774 84.2989C149.105 85.6369 149.439 86.9998 149.361 88.3761C149.282 89.7527 148.728 91.1698 147.602 91.9665C151.046 96.8247 152.223 102.95 152.412 108.9C152.513 112.065 152.36 115.228 152.207 118.392V118.392V118.392V118.393V118.393V118.394C152.072 121.178 151.937 123.964 151.976 126.75C154.298 120.581 154.391 113.832 154.455 107.241L154.629 89.4556C154.665 85.8087 154.7 82.1471 154.222 78.5312L148.619 79.6379C148.217 79.7173 147.7 79.9618 147.799 80.3592ZM127.548 19.4907C125.003 20.774 123.683 23.7954 123.742 26.6434C123.767 27.8319 124.102 29.1714 125.148 29.7387C125.82 30.1036 126.702 30.0416 127.317 29.5863C127.932 29.1311 128.248 28.3061 128.094 27.5571C128.021 27.2014 128.504 26.9309 128.837 27.0768C129.169 27.2227 129.33 27.6067 129.377 27.9666C129.396 28.1053 129.402 28.2456 129.408 28.3858C129.418 28.6095 129.428 28.8329 129.487 29.0483C129.648 29.6427 130.201 30.1096 130.815 30.1686C131.428 30.2275 132.06 29.8745 132.332 29.3216C132.402 29.1788 132.451 29.0239 132.499 28.8698C132.581 28.6071 132.663 28.3463 132.85 28.1498C133.147 27.8379 133.864 27.9874 133.769 28.4071C133.575 29.2656 134.481 30.1122 135.357 30.0159C136.232 29.9197 136.905 29.0841 137.004 28.2095L137.008 28.1716L137.011 28.1429C137.064 27.6644 137.131 27.0483 137.597 27.0068C137.985 27.3933 138.074 27.9719 138.162 28.5425C138.26 29.1798 138.356 29.8071 138.866 30.145C139.589 30.6245 140.587 30.0829 141.079 29.3681C141.782 28.3475 141.921 27.0139 141.67 25.8011C141.418 24.5882 140.811 23.4776 140.118 22.4499C139.597 21.6762 139.018 20.9317 138.306 20.329C136.089 18.4535 132.887 18.2098 130.029 18.7279C129.175 18.8827 128.323 19.1 127.548 19.4907ZM91.5249 183.83C91.2198 185.463 91.0944 187.108 90.9693 188.754C90.8438 190.399 90.7184 192.045 90.4133 193.677C90.3268 194.141 89.665 195.403 88.8238 197.007C87.1372 200.222 84.7298 204.812 84.7967 207.087C84.8089 207.497 84.9951 208.306 85.3429 208.256C85.9967 208.161 86.1184 207.439 86.2316 206.768C86.2454 206.686 86.2589 206.604 86.2733 206.525C86.4067 205.796 86.5171 205.574 87.2509 205.682C87.4754 205.752 87.4754 206.036 87.2221 206.525C86.9685 207.014 86.782 207.63 87.0792 208.094C87.3767 208.557 88.3145 208.434 88.2685 207.885C88.2317 207.446 88.5441 207.005 88.9698 206.893C89.1127 207.143 89.0514 207.48 88.994 207.797C88.9229 208.189 88.8576 208.55 89.1924 208.672C89.6512 208.838 89.8984 208.158 89.9836 207.677C90.0692 207.197 90.7196 206.681 90.9266 207.123C90.378 207.789 89.8104 209.365 91.3284 209.365C91.7503 209.365 91.7442 208.676 91.7381 207.989C91.735 207.645 91.7319 207.3 91.7822 207.043C92.188 207.017 92.3526 207.572 92.2803 207.971C92.2631 208.066 92.241 208.149 92.2214 208.225C92.1573 208.467 92.1138 208.633 92.3073 208.875C92.6679 209.324 93.3947 208.989 93.809 208.588C95.4095 207.038 96.2651 205.119 96.5926 202.916C96.9201 200.714 96.7637 198.471 96.6067 196.249C96.5251 195.095 96.4166 193.866 95.7085 192.949C93.6462 190.279 92.2033 187.134 91.5249 183.83ZM132.539 30.3615C131.744 31.1834 130.254 31.1748 129.47 30.3436C129.397 30.2665 129.33 30.1835 129.262 30.1007C129.124 29.9309 128.986 29.7616 128.804 29.6437C128.532 29.4684 128.103 29.4674 127.946 29.7499C127.29 30.9316 125.507 31.2867 124.447 30.4475L126.646 38.8172C127.055 40.3751 127.507 42.0102 128.643 43.1535C129.36 43.8748 130.297 44.3397 131.255 44.6822C131.77 44.8662 132.308 45.0205 132.855 45.0048C133.467 44.9877 134.055 44.7586 134.596 44.4728C136.868 43.2737 138.484 41.0626 139.395 38.663C140.306 36.2633 140.577 33.6704 140.685 31.1061C139.452 31.5259 137.959 30.9546 137.322 29.8192C136.472 30.6402 135.13 30.907 134.03 30.4742C133.989 30.4578 133.946 30.4408 133.904 30.4235C133.432 30.2336 132.878 30.0106 132.539 30.3615ZM117.638 40.2043C116.884 37.7767 115.009 35.6374 112.57 34.9161C111.69 34.6554 110.762 34.5803 109.844 34.6005C105.459 34.6978 100.968 37.3829 99.7188 41.5843C99.6191 41.9191 99.5452 42.3003 99.7212 42.6021C99.8905 42.8928 100.239 43.0198 100.565 43.1078C103.407 43.8766 106.593 43.2458 108.927 41.4524L108.956 41.4306L108.987 41.4061L108.988 41.4055C109.245 41.2071 109.511 41.0016 109.829 40.9528C110.173 40.9001 110.586 41.1261 110.584 41.4736C110.569 44.4547 112.064 47.6458 114.846 48.7225C115.426 48.947 116.132 49.0568 116.63 48.6842C116.948 48.4459 117.112 48.0586 117.248 47.6851C118.118 45.2968 118.391 42.6318 117.638 40.2043ZM105.832 28.3479C106.363 29.5485 107.342 30.4921 108.364 31.3161C110.144 32.7501 112.243 33.9572 114.528 34.039C116.813 34.1209 119.263 32.7863 119.851 30.5787C120.157 29.4296 119.942 28.2031 119.575 27.0717C119.193 25.8904 118.592 24.6981 117.529 24.0553C114.66 22.321 110.945 22.0719 107.87 23.408C107.215 23.693 106.572 24.0584 106.124 24.6152C105.3 25.6383 105.301 27.1472 105.832 28.3479ZM148.155 19.5095C149.43 17.1617 149.185 14.0741 147.557 11.9558C147.321 11.6497 147.053 11.357 146.71 11.1797C146.374 11.0063 145.988 10.9546 145.611 10.9406C143.702 10.8699 141.782 11.7491 140.589 13.2395C139.396 14.7298 138.96 16.7951 139.449 18.6398C139.722 18.5112 139.825 18.1846 139.901 17.8937C139.978 17.6028 140.085 17.2762 140.359 17.1522C140.633 17.0282 141.033 17.3547 140.85 17.5933C140.237 18.3904 139.945 19.4255 140.048 20.4249C140.15 20.6436 140.465 20.3983 140.552 20.1735L140.943 19.1652C141.035 18.9282 141.139 18.6764 141.35 18.5342C141.561 18.392 141.911 18.4328 141.997 18.6724L141.027 20.6767C140.902 20.9353 140.833 21.3403 141.107 21.4268L143.812 19.3605C144.158 19.7523 143.84 20.3838 143.419 20.6938C143.29 20.7889 143.15 20.8732 143.011 20.9575C142.695 21.1479 142.38 21.3377 142.195 21.6489C143.113 21.758 144.043 21.7624 144.963 21.6619C145.453 21.6083 145.948 21.5228 146.396 21.3158C147.172 20.9571 147.747 20.2609 148.155 19.5095ZM127.74 49.3077C128.727 50.327 130.167 50.7518 131.556 51.0431C133.616 51.4758 135.979 51.635 137.61 50.3056C137.945 50.0329 138.256 49.5916 138.074 49.2003C137.308 47.5471 137.024 45.6743 137.266 43.8683C136.926 43.811 136.655 44.1259 136.434 44.389C135.598 45.386 134.38 46.1015 133.08 46.1594C131.274 46.2395 129.667 45.1054 128.22 44.0232C128.11 45.2446 127.772 46.4449 127.229 47.5446C126.94 48.1304 127.286 48.8385 127.74 49.3077ZM83.1799 146.281C83.6479 146.576 84.2453 146.535 84.7967 146.484C93.0153 145.718 101.487 144.736 108.662 140.659C102.658 142.876 96.2577 143.759 89.9165 144.629C87.6156 144.945 85.2739 145.26 82.9809 144.89C82.5283 145.209 82.7117 145.985 83.1799 146.281ZM105.505 59.297L105.694 61.6013C105.709 61.796 105.727 61.9981 105.824 62.1683C105.941 62.375 106.156 62.5041 106.361 62.6237L107.975 63.5646C108.053 63.61 108.143 63.6569 108.228 63.6296C108.331 63.5968 108.373 63.4769 108.4 63.3726L109.868 57.787C108.376 58.17 106.915 58.6757 105.505 59.297ZM83.5559 88.2632C83.693 88.2691 83.8347 88.2737 83.9616 88.2221C84.3051 88.0823 84.3664 87.6312 84.3756 87.2607C81.523 87.009 78.6909 86.525 75.9168 85.8154C75.5068 86.1156 75.585 86.7967 75.9444 87.1562C76.3039 87.5153 76.8335 87.633 77.3343 87.7195C79.3871 88.074 81.4746 88.1764 83.5559 88.2632ZM97.063 45.2894C97.4954 45.44 97.9002 44.9634 97.9944 44.5157C98.0254 44.3676 98.0407 44.2145 98.056 44.0615C98.087 43.7521 98.1177 43.4442 98.2796 43.1841C98.5191 42.7996 98.1885 42.2556 97.7487 42.1455C97.309 42.0351 96.8487 42.2408 96.4874 42.5144C95.8943 42.963 95.4402 43.7778 95.7818 44.4381C96.0234 44.9055 96.5662 45.1164 97.063 45.2894ZM142.947 33.1816C142.908 33.0289 142.852 32.8758 142.747 32.7581C142.439 32.4106 141.826 32.5373 141.523 32.8906C141.221 33.2438 141.146 33.7324 141.088 34.1939C141.015 34.7695 140.95 35.3464 140.893 35.9238C140.878 36.075 140.936 36.2952 141.084 36.2599C142.383 35.9499 143.275 34.4748 142.947 33.1816ZM124.718 36.6426C124.815 36.588 124.907 36.5166 124.957 36.4172C125.033 36.2639 124.992 36.0811 124.95 35.9152L124.699 34.9324C124.601 34.5453 124.45 34.0994 124.069 33.9759C123.645 33.8379 123.216 34.2071 123.02 34.6082C122.731 35.201 122.757 35.9864 123.228 36.4482C123.612 36.8242 124.251 36.9076 124.718 36.6426ZM143.529 22.7226C143.205 22.5597 142.823 22.5146 142.47 22.5973C142.766 22.9286 143.267 23.0598 143.687 22.9164C143.808 22.8518 143.685 22.622 143.564 22.686L143.529 22.7226ZM147.36 77.8835L152.9 76.5387C152.996 76.5154 153.105 76.4937 153.189 76.5409C153.407 76.6642 153.144 76.9475 152.906 77.0368C151.397 77.6038 149.793 77.9684 148.164 78.115C147.864 78.142 147.489 78.1261 147.36 77.8835ZM101.154 47.3554C101.323 47.2625 101.386 47.0859 101.45 46.9083C101.477 46.8332 101.504 46.7577 101.539 46.6881C101.658 46.4554 102.082 46.3072 102.182 46.547C102.54 47.403 103.518 48.0105 104.523 48.0025C104.884 47.9997 105.03 48.4886 104.813 48.7501C104.595 49.012 104.2 49.0826 103.841 49.1114C103.54 48.686 103.021 48.4634 102.502 48.2411C101.976 48.016 101.451 47.7912 101.154 47.3554ZM110.374 52.8684C110.197 52.8414 110.077 52.6816 109.96 52.5255C109.83 52.3523 109.704 52.1836 109.506 52.2069C108.814 52.2885 108.39 51.4804 108.172 50.8137C108.084 50.5472 108.169 50.0973 108.428 50.201C109.09 50.929 110.006 51.4169 110.976 51.558C111.352 51.6126 111.835 51.7027 111.899 52.0796L110.786 52.7377C110.659 52.8129 110.519 52.8908 110.374 52.8684ZM107.137 54.5673C104.977 55.3199 102.274 54.3499 101.251 52.4547C101.138 52.2443 100.745 52.3329 100.652 52.5516C100.558 52.7702 100.666 53.015 100.79 53.2204C101.422 54.2723 102.531 55.0755 103.796 55.3971C105.061 55.7188 106.465 55.5548 107.601 54.9525C107.531 54.7467 107.358 54.4906 107.137 54.5673ZM105.028 49.79C105.214 49.5426 105.42 49.2917 105.705 49.1712C105.989 49.0507 106.373 49.1086 106.526 49.377C105.959 49.8882 105.445 50.4601 104.999 51.0805C104.829 51.316 104.661 51.5899 104.707 51.8769C104.754 52.1637 105.138 52.3838 105.344 52.1787C105.497 52.0256 105.796 52.1854 105.809 52.4022C105.821 52.619 105.626 52.804 105.415 52.853C105.204 52.9021 104.985 52.8484 104.776 52.7889C104.41 52.6838 104.003 52.5169 103.877 52.1557C103.762 51.8242 103.934 51.4672 104.112 51.1651C104.391 50.6898 104.697 50.2304 105.028 49.79ZM129.845 32.475C130.282 32.5097 130.849 32.8016 130.671 33.1715C130.362 33.4116 129.937 33.3306 129.521 33.2515C129.397 33.2279 129.274 33.2046 129.155 33.1899C128.649 33.127 128.141 33.2396 127.636 33.3515C127.078 33.4754 126.522 33.5987 125.972 33.4852C125.823 33.3907 125.847 33.1653 125.973 33.0454C126.099 32.9258 126.286 32.8838 126.463 32.8473C127.575 32.617 128.709 32.3855 129.845 32.475ZM136.473 32.7811C137.228 32.874 137.999 32.8556 138.748 32.7265C138.863 32.3757 138.327 32.1693 137.926 32.1306L136.045 31.9488C135.639 31.9095 135.201 31.8758 134.847 32.061C134.493 32.2463 134.318 32.7449 134.621 32.9927C135.048 32.6011 135.737 32.6885 136.35 32.7658C136.392 32.771 136.433 32.7762 136.473 32.7811ZM137.322 35.5337C137.296 35.6122 137.193 35.6398 137.104 35.6512C136.296 35.7576 135.445 35.5558 134.793 35.1029C134.638 34.9946 134.483 34.8551 134.466 34.6763C134.45 34.4975 134.659 34.3074 134.831 34.3914C135.732 34.8312 136.914 34.7186 137.699 34.1191C137.885 33.9768 138.199 34.1494 138.224 34.3715C138.249 34.5932 138.073 34.7965 137.867 34.9124C137.743 34.9817 137.607 35.0293 137.472 35.0765C137.381 35.1084 137.289 35.1403 137.202 35.1789C137.164 35.3053 137.213 35.4497 137.322 35.5337ZM134.821 39.2922C135.446 38.842 136.018 38.0837 135.748 37.367C134.627 38.8709 132.678 39.7283 130.799 39.5443C130.477 39.513 130.199 39.8225 130.17 40.1405C130.142 40.4588 130.301 40.7652 130.499 41.0182C131.409 42.1884 133.189 42.5052 134.554 41.9072C135.918 41.3092 136.844 39.9372 137.111 38.4842C137.166 38.187 137.19 37.857 137.02 37.6059C136.851 37.3544 136.418 37.2747 136.252 37.528C136.542 37.9414 136.533 38.4967 136.403 38.9831C136.131 39.9936 135.364 40.8614 134.389 41.2623C133.413 41.6631 132.251 41.5876 131.336 41.0645C131.189 40.9804 131.039 40.8737 130.988 40.7139C130.937 40.5539 131.047 40.3407 131.216 40.3496C132.492 40.4168 133.788 40.0368 134.821 39.2922ZM130.623 34.7241C129.971 36.1443 128.119 36.4911 126.69 36.0164C126.28 35.88 126.34 35.1734 126.706 34.9363C127.073 34.699 127.542 34.7864 127.962 34.8842C128.382 34.9823 128.848 35.0762 129.22 34.8483C129.365 34.7591 129.481 34.6284 129.597 34.4975C129.696 34.3856 129.795 34.2733 129.913 34.1865C130.17 33.9986 130.624 34.0203 130.695 34.3411C130.725 34.4702 130.678 34.6045 130.623 34.7241ZM131.565 34.3031L131.262 36.8984C131.239 37.0956 131.218 37.3044 131.303 37.4844C131.433 37.758 131.789 37.88 132.088 37.8077C132.387 37.7356 132.625 37.5068 132.78 37.2458C132.937 36.9797 132.837 36.4776 132.541 36.581C132.462 36.6086 132.405 36.6776 132.35 36.7454C132.283 36.8266 132.218 36.9064 132.117 36.9097C131.883 36.9174 131.887 36.5669 131.965 36.3504C132.289 35.4503 132.339 34.4573 132.107 33.5303C131.754 33.518 131.605 33.9599 131.565 34.3031ZM109.648 48.1699C110.654 48.5373 111.561 49.1694 112.251 49.9842C112.332 50.0795 112.412 50.1835 112.433 50.3065C112.462 50.488 112.332 50.6815 112.151 50.7232C111.114 49.5536 109.679 48.7391 108.138 48.4459C108.375 47.9369 109.118 47.9764 109.648 48.1699ZM103.348 167.386C103.072 167.363 102.789 167.339 102.555 167.241C102.429 167.188 102.318 167.113 102.207 167.038C102.101 166.966 101.995 166.894 101.875 166.842C101.63 166.735 101.266 166.75 101.154 166.967C101.964 167.7 103.242 168.017 104.377 167.767C104.191 167.457 103.778 167.422 103.348 167.386ZM143.806 152.724L145.845 152.284C146.022 152.246 146.275 152.277 146.286 152.499C145.361 153.293 144.147 153.549 143.062 153.178C143.209 152.874 143.525 152.785 143.806 152.724ZM115.215 103.312C114.807 103.412 114.396 103.512 114.049 103.731C114.826 104.098 115.771 103.856 116.562 103.516C118.343 102.752 119.886 101.516 120.963 99.9905C121.381 99.3995 121.739 98.6712 121.486 98.0045C121.081 98.0787 120.892 98.5019 120.738 98.8589C119.831 100.962 117.835 102.63 115.493 103.242C115.401 103.267 115.308 103.289 115.215 103.312ZM150.047 104.246C149.834 104.555 149.349 104.464 149.002 104.311C146.31 103.125 144.513 100.222 144.685 97.336C144.693 97.2084 144.71 97.0685 144.805 96.9815C144.9 96.8941 145.097 96.9189 145.116 97.0449C145.293 98.1839 145.473 99.3339 145.903 100.406C146.333 101.478 147.041 102.482 148.059 103.06C148.269 103.179 148.494 103.282 148.718 103.385C149.213 103.611 149.707 103.837 150.047 104.246ZM122.994 154.179C122.344 154.005 121.691 153.829 121.033 153.897C122.326 154.97 124.285 155.262 125.864 154.617C125.921 154.364 125.489 154.342 125.224 154.405C124.485 154.58 123.742 154.38 122.994 154.179ZM129.019 97.4586C129.281 97.5141 129.489 97.2489 129.624 97.018C130.192 96.051 130.562 95.6987 131.303 94.9939L131.352 94.9473C131.391 95.4843 131.433 95.7977 131.475 96.1111C131.517 96.4246 131.559 96.7383 131.598 97.2749C131.611 97.4491 131.628 97.6343 131.735 97.772C132.034 98.1569 132.667 97.8263 132.921 97.4108C133.511 96.4469 133.336 95.0829 132.521 94.2993C132.312 94.0982 132.621 93.7204 132.906 93.7765C133.191 93.8323 133.365 94.1153 133.486 94.3788C133.839 95.1436 134.045 96.0112 133.858 96.8324C133.67 97.6537 133.022 98.4041 132.188 98.5267C131.894 98.57 131.566 98.5249 131.352 98.3191C131.116 98.0931 131.072 97.7386 131.042 97.4138L130.944 96.3559C130.668 96.5242 130.49 96.8082 130.314 97.0906C130.12 97.4007 129.928 97.7089 129.606 97.8604C129.098 98.0986 128.45 97.7993 128.187 97.3044C127.925 96.8094 127.991 96.1915 128.227 95.6836C128.464 95.1758 128.851 94.7557 129.237 94.3496C129.471 94.104 129.72 93.851 130.042 93.7464C130.365 93.6415 130.78 93.7406 130.92 94.0494C129.68 94.3411 128.712 95.5318 128.681 96.8045C128.674 97.0716 128.758 97.4031 129.019 97.4586ZM89.3798 163.23C89.4298 163.301 89.508 163.336 89.5837 163.365C91.0085 163.909 92.5434 163.172 93.9044 162.45C94.0592 162.368 94.2423 162.178 94.1387 162.024C94.0856 161.946 93.9847 161.938 93.8973 161.943C93.3696 161.971 92.859 162.208 92.3548 162.442C91.6688 162.76 90.9947 163.072 90.3038 162.849C90.2514 162.832 90.1986 162.812 90.1459 162.792C89.9849 162.73 89.8229 162.668 89.657 162.695C89.4368 162.731 89.2409 163.035 89.3798 163.23Z" fill="#00160A"/>
<path fill-rule="evenodd" clip-rule="evenodd" d="M110.984 29.4131C111.13 30.3372 111.674 31.2076 112.48 31.8084C112.813 32.0565 112.998 32.4518 112.962 32.8357C113.048 33.0216 112.653 33.0357 112.473 32.9127C111.422 32.192 110.657 31.1497 110.34 30.0058C110.28 29.7875 110.242 29.5364 110.393 29.3553C110.543 29.1743 110.949 29.1905 110.984 29.4131Z" fill="#00160A"/>
<path fill-rule="evenodd" clip-rule="evenodd" d="M107.116 40.7565C107.772 40.352 108.477 39.8325 109.213 40.0141C107.119 42.3923 103.774 43.0166 100.787 42.4883C100.538 42.4441 100.262 42.3736 100.127 42.142C99.9911 41.9105 100.164 41.5066 100.406 41.5848C102.623 42.3027 105.103 41.9967 107.116 40.7565Z" fill="#00160A"/>
<path d="M99.9733 52.1333C100.651 52.1333 101.2 51.5841 101.2 50.9066C101.2 50.2291 100.651 49.6799 99.9733 49.6799C99.2958 49.6799 98.7466 50.2291 98.7466 50.9066C98.7466 51.5841 99.2958 52.1333 99.9733 52.1333Z" fill="#FFB61D"/>
<path d="M109.173 56.12C109.851 56.12 110.4 55.5708 110.4 54.8933C110.4 54.2158 109.851 53.6666 109.173 53.6666C108.496 53.6666 107.947 54.2158 107.947 54.8933C107.947 55.5708 108.496 56.12 109.173 56.12Z" fill="#FFB61D"/>
<path d="M128.34 39.8666C128.763 39.8666 129.107 39.5233 129.107 39.0999C129.107 38.6765 128.763 38.3333 128.34 38.3333C127.917 38.3333 127.573 38.6765 127.573 39.0999C127.573 39.5233 127.917 39.8666 128.34 39.8666Z" fill="#FFB61D"/>
<path d="M138.46 39.2533C138.883 39.2533 139.227 38.9101 139.227 38.4866C139.227 38.0632 138.883 37.72 138.46 37.72C138.037 37.72 137.693 38.0632 137.693 38.4866C137.693 38.9101 138.037 39.2533 138.46 39.2533Z" fill="#FFB61D"/>
</svg>
