<svg width="69" height="69" viewBox="0 0 69 69" fill="none" xmlns="http://www.w3.org/2000/svg">
<circle cx="34.5" cy="34.5" r="33.5" fill="#F8D656" stroke="black" stroke-width="2"/>
<circle cx="34.5" cy="34.5" r="33.5" fill="black" stroke="black" stroke-width="2"/>
<path d="M34 2C16.4 2 2 16.4257 2 34.1928C2 50.257 13.712 63.5904 29.008 66V43.51H20.88V34.1928H29.008V27.0924C29.008 19.0281 33.776 14.5944 41.104 14.5944C44.5919 14.5944 48.2399 15.2048 48.2399 15.2048V23.1406H44.2079C40.24 23.1406 38.992 25.6145 38.992 28.1526V34.1928H47.8879L46.4479 43.51H38.992V66C46.5326 64.8043 53.399 60.9414 58.3517 55.1086C63.3044 49.2758 66.017 41.8575 65.9999 34.1928C65.9999 16.4257 51.5999 2 34 2Z" fill="#F8D656"/>
</svg>
