<svg width="69" height="69" viewBox="0 0 69 69" fill="none" xmlns="http://www.w3.org/2000/svg">
<circle cx="34.5" cy="34.5" r="33.5" fill="#F8D656" stroke="black" stroke-width="2"/>
<path d="M56.7917 22.5002C55.1875 23.2293 53.4583 23.7085 51.6667 23.9377C53.5 22.8335 54.9167 21.0835 55.5833 18.9793C53.8542 20.021 51.9375 20.7502 49.9167 21.1668C48.2708 19.3752 45.9583 18.3335 43.3333 18.3335C38.4375 18.3335 34.4375 22.3335 34.4375 27.271C34.4375 27.9793 34.5208 28.6668 34.6667 29.3127C27.25 28.9377 20.6458 25.3752 16.25 19.9793C15.4792 21.2918 15.0417 22.8335 15.0417 24.4585C15.0417 27.5627 16.6042 30.3127 19.0208 31.8752C17.5417 31.8752 16.1667 31.4585 14.9583 30.8335C14.9583 30.8335 14.9583 30.8335 14.9583 30.896C14.9583 35.2293 18.0417 38.8543 22.125 39.6668C21.375 39.8752 20.5833 39.9793 19.7708 39.9793C19.2083 39.9793 18.6458 39.9168 18.1042 39.8127C19.2292 43.3335 22.5 45.9585 26.4375 46.021C23.3958 48.4377 19.5417 49.8543 15.3333 49.8543C14.625 49.8543 13.9167 49.8127 13.2083 49.7293C17.1667 52.271 21.875 53.7502 26.9167 53.7502C43.3333 53.7502 52.3542 40.1252 52.3542 28.3127C52.3542 27.9168 52.3542 27.5418 52.3333 27.146C54.0833 25.896 55.5833 24.3127 56.7917 22.5002Z" fill="black"/>
</svg>
