<svg width="69" height="69" viewBox="0 0 69 69" fill="none" xmlns="http://www.w3.org/2000/svg">
<circle cx="34.5" cy="34.5" r="33.5" fill="#F8D656" stroke="black" stroke-width="2"/>
<path d="M35.0833 11.1665C23.7083 11.1665 14.4375 20.4373 14.4375 31.8123C14.4375 35.4582 15.3958 38.9998 17.1875 42.1248L14.2708 52.8332L25.2083 49.9582C28.2292 51.604 31.625 52.479 35.0833 52.479C46.4583 52.479 55.7292 43.2082 55.7292 31.8332C55.7292 26.3123 53.5833 21.1248 49.6875 17.229C45.7917 13.3123 40.6042 11.1665 35.0833 11.1665ZM35.1042 14.6457C39.6875 14.6457 43.9792 16.4373 47.2292 19.6873C50.4583 22.9373 52.25 27.2498 52.25 31.8332C52.25 41.2915 44.5417 48.979 35.0833 48.979C32 48.979 28.9792 48.1665 26.3542 46.5832L25.7292 46.229L19.2292 47.9373L20.9583 41.604L20.5417 40.9373C18.8333 38.2498 17.9167 35.0623 17.9167 31.8123C17.9375 22.354 25.625 14.6457 35.1042 14.6457ZM27.7708 22.2707C27.4375 22.2707 26.875 22.3957 26.3958 22.9165C25.9375 23.4373 24.5833 24.7082 24.5833 27.229C24.5833 29.7707 26.4375 32.2082 26.6667 32.5623C26.9583 32.9165 30.3333 38.1248 35.5208 40.3332C36.75 40.8957 37.7083 41.2082 38.4583 41.4373C39.6875 41.8332 40.8125 41.7707 41.7083 41.6457C42.7083 41.4998 44.75 40.3957 45.1875 39.1873C45.625 37.979 45.625 36.9582 45.5 36.729C45.3542 36.5207 45.0208 36.3957 44.5 36.1665C43.9792 35.8748 41.4375 34.6248 40.9792 34.4582C40.5 34.2915 40.2083 34.2082 39.8125 34.7082C39.4792 35.229 38.4792 36.3957 38.1875 36.729C37.875 37.0832 37.5833 37.1248 37.0833 36.8748C36.5417 36.604 34.875 36.0623 32.9167 34.3123C31.375 32.9373 30.3542 31.2498 30.0417 30.729C29.7917 30.229 30.0208 29.9165 30.2708 29.6873C30.5 29.4582 30.8333 29.0832 31.0417 28.7707C31.3125 28.479 31.3958 28.2498 31.5625 27.9165C31.7292 27.5623 31.6458 27.2707 31.5208 27.0207C31.3958 26.7915 30.3542 24.2082 29.9167 23.1873C29.5 22.1873 29.0833 22.3123 28.75 22.2915C28.4583 22.2915 28.125 22.2707 27.7708 22.2707Z" fill="black"/>
</svg>
