<svg width="63" height="68" viewBox="0 0 63 68" fill="none" xmlns="http://www.w3.org/2000/svg">
<g clip-path="url(#clip0_15_761)">
<mask id="mask0_15_761" style="mask-type:luminance" maskUnits="userSpaceOnUse" x="0" y="0" width="63" height="68">
<path d="M62.7644 0H0V67.9975H62.7644V0Z" fill="white"/>
</mask>
<g mask="url(#mask0_15_761)">
<path d="M61.0629 53.288V65.6468" stroke="#181828" stroke-width="2" stroke-linecap="round" stroke-linejoin="round"/>
<path d="M58.967 53.288V65.6468" stroke="#181828" stroke-width="2" stroke-linecap="round" stroke-linejoin="round"/>
<path d="M56.8166 67.2492C59.9643 67.2492 62.5163 64.6486 62.5163 61.4402C62.5163 58.232 59.9643 55.6311 56.8166 55.6311C53.6686 55.6311 51.1168 58.232 51.1168 61.4402C51.1168 64.6486 53.6686 67.2492 56.8166 67.2492Z" fill="#86FF33"/>
<path d="M59.8078 56.9355C59.8078 56.9355 62.5362 58.8693 62.1195 61.698" stroke="#EEFFE1" stroke-width="3" stroke-linecap="round" stroke-linejoin="round"/>
<path d="M56.8166 67.2492C59.9643 67.2492 62.5163 64.6486 62.5163 61.4402C62.5163 58.232 59.9643 55.6311 56.8166 55.6311C53.6686 55.6311 51.1168 58.232 51.1168 61.4402C51.1168 64.6486 53.6686 67.2492 56.8166 67.2492Z" stroke="#181828" stroke-width="2" stroke-miterlimit="10"/>
<path d="M56.0204 57.0343C56.4691 57.0343 56.8992 57.2161 57.2164 57.5394C57.5336 57.8627 57.712 58.301 57.712 58.7583V66.0184H56.0204V57.0343Z" fill="#54CA01"/>
<path d="M47.3914 40.3218C47.3914 40.3218 35.7339 35.4252 36.8376 24.0751" stroke="#181828" stroke-width="2" stroke-linecap="round" stroke-linejoin="round"/>
<path d="M51.9378 39.3167C51.9378 39.3167 36.3118 28.2218 37.8347 14.7506" stroke="#181828" stroke-width="2" stroke-linecap="round" stroke-linejoin="round"/>
<path d="M57.7566 36.6978H39.3874" stroke="#181828" stroke-width="2" stroke-linecap="round" stroke-linejoin="round"/>
<path d="M56.2709 45.7066V40.3652H38.688V66.951H56.2709V47.911" fill="#FBB63A"/>
<path d="M38.688 42.1297H56.2709V40.3677H38.688V42.1297Z" fill="#ED7D00"/>
<path d="M47.1508 61.3772H56.2684V59.6153H47.1508V61.3772Z" fill="#ED7D00"/>
<path d="M54.7009 66.6046H56.2709V41.5154H54.7009V66.6046Z" fill="#ED7D00"/>
<path d="M40.8657 66.6046H39.0724V46.7962C39.0724 46.3116 39.2614 45.8467 39.5977 45.5039C39.9341 45.1611 40.3902 44.9685 40.8657 44.9685V66.6046Z" fill="#FFDB9C"/>
<path d="M56.2709 45.7066V40.3652H38.688V66.951H56.2709V47.911" stroke="#181828" stroke-width="2" stroke-linecap="round" stroke-linejoin="round"/>
<path d="M34.3648 40.5369H58.1758V38.5146H34.3648V40.5369Z" fill="#889FAA"/>
<path d="M58.1584 39.8824H37.2221C36.8932 39.8824 36.5777 39.7492 36.345 39.5121C36.1126 39.275 35.9819 38.9537 35.9819 38.6185H58.1584V39.8824Z" fill="#C5D5DC"/>
<path d="M56.4693 39.208H54.7728C54.6255 39.208 54.4841 39.1483 54.3799 39.0419C54.2757 38.9357 54.2172 38.7919 54.2172 38.6417H57.0249C57.0249 38.7919 56.9664 38.9357 56.8622 39.0419C56.758 39.1483 56.6167 39.208 56.4693 39.208Z" fill="white"/>
<path d="M53.4061 39.208H51.7096C51.6367 39.208 51.5645 39.1933 51.497 39.1647C51.4296 39.1362 51.3683 39.0945 51.3167 39.0419C51.2651 38.9893 51.2242 38.9271 51.1964 38.8584C51.1684 38.7896 51.154 38.716 51.154 38.6417H53.9617C53.9617 38.7919 53.9032 38.9357 53.799 39.0419C53.6949 39.1483 53.5535 39.208 53.4061 39.208Z" fill="white"/>
<path d="M40.3002 38.5146H34.2606V40.5369H58.0716V38.5146H40.062" stroke="#181828" stroke-width="2" stroke-miterlimit="10"/>
<path d="M55.7997 36.7352V38.4339" stroke="#181828" stroke-width="1.5" stroke-linecap="round" stroke-linejoin="round"/>
<path d="M52.5901 36.7352V38.4339" stroke="#181828" stroke-width="1.5" stroke-linecap="round" stroke-linejoin="round"/>
<path d="M49.3781 36.7352V38.4339" stroke="#181828" stroke-width="1.5" stroke-linecap="round" stroke-linejoin="round"/>
<path d="M46.4141 40.0517C46.6389 40.0517 46.8209 39.8662 46.8209 39.6372C46.8209 39.4081 46.6389 39.2226 46.4141 39.2226C46.1894 39.2226 46.0074 39.4081 46.0074 39.6372C46.0074 39.8662 46.1894 40.0517 46.4141 40.0517Z" fill="#889FAA"/>
<path d="M47.6717 40.0877C47.8416 40.0877 47.9792 39.9471 47.9792 39.7742C47.9792 39.601 47.8416 39.4608 47.6717 39.4608C47.5018 39.4608 47.3641 39.601 47.3641 39.7742C47.3641 39.9471 47.5018 40.0877 47.6717 40.0877Z" fill="#889FAA"/>
<path d="M45.742 39.4984C45.8352 39.4984 45.9106 39.4213 45.9106 39.3265C45.9106 39.2314 45.8352 39.1546 45.742 39.1546C45.649 39.1546 45.5733 39.2314 45.5733 39.3265C45.5733 39.4213 45.649 39.4984 45.742 39.4984Z" fill="#889FAA"/>
<path d="M58.0096 39.5209H54.8026" stroke="#181828" stroke-linecap="round" stroke-linejoin="round"/>
<path d="M46.2355 52.5117H58.1411V50.4894H46.2355V52.5117Z" fill="#889FAA"/>
<path d="M56.2635 51.8314H47.2326C46.9037 51.8314 46.5883 51.6982 46.3556 51.4614C46.1232 51.2242 45.9925 50.9027 45.9925 50.5675H56.2635V51.8314Z" fill="#C5D5DC"/>
<path d="M48.2248 51.1818H46.5282C46.3809 51.1818 46.2395 51.1221 46.1353 51.016C46.0312 50.9098 45.9726 50.7657 45.9726 50.6155H48.7804C48.7804 50.7657 48.7218 50.9098 48.6176 51.016C48.5135 51.1221 48.3721 51.1818 48.2248 51.1818Z" fill="white"/>
<path d="M56.6355 50.4894H46.1339V52.5117H58.0394V50.4894H49.9486" stroke="#181828" stroke-width="2" stroke-miterlimit="10"/>
<path d="M41.4684 41.1464V42.4103" stroke="white" stroke-linecap="round" stroke-linejoin="round"/>
<path d="M40.5507 42.7291V43.7402" stroke="white" stroke-linecap="round" stroke-linejoin="round"/>
<path d="M42.3018 43.9022V44.9134" stroke="white" stroke-linecap="round" stroke-linejoin="round"/>
<path d="M44.3828 43.8686V45.1325" stroke="white" stroke-linecap="round" stroke-linejoin="round"/>
<path d="M43.1079 42.7291V43.7402" stroke="white" stroke-linecap="round" stroke-linejoin="round"/>
<path d="M39.2361 42.6886H47.3095C47.3589 42.6886 47.4063 42.6687 47.441 42.633C47.476 42.5976 47.4956 42.5493 47.4956 42.499C47.4956 42.4487 47.476 42.4005 47.441 42.3651C47.4063 42.3294 47.3589 42.3094 47.3095 42.3094H39.2361C39.1867 42.3094 39.1394 42.3294 39.1046 42.3651C39.0697 42.4005 39.0501 42.4487 39.0501 42.499C39.0501 42.5493 39.0697 42.5976 39.1046 42.633C39.1394 42.6687 39.1867 42.6886 39.2361 42.6886Z" fill="white"/>
<path d="M39.2361 44.0354H49.7898C49.8392 44.0354 49.8866 44.0155 49.9213 43.9801C49.9563 43.9444 49.9759 43.8961 49.9759 43.8458C49.9759 43.7955 49.9563 43.7475 49.9213 43.7119C49.8866 43.6762 49.8392 43.6562 49.7898 43.6562H39.2361C39.1867 43.6562 39.1394 43.6762 39.1046 43.7119C39.0697 43.7475 39.0501 43.7955 39.0501 43.8458C39.0501 43.8961 39.0697 43.9444 39.1046 43.9801C39.1394 44.0155 39.1867 44.0354 39.2361 44.0354Z" fill="white"/>
<path d="M39.9802 45.3833H47.3095C47.3589 45.3833 47.4063 45.3634 47.441 45.328C47.476 45.2923 47.4956 45.244 47.4956 45.1937C47.4956 45.1434 47.476 45.0954 47.441 45.0598C47.4063 45.0241 47.3589 45.0042 47.3095 45.0042H39.9802C39.9308 45.0042 39.8835 45.0241 39.8487 45.0598C39.8138 45.0954 39.7942 45.1434 39.7942 45.1937C39.7942 45.244 39.8138 45.2923 39.8487 45.328C39.8835 45.3634 39.9308 45.3833 39.9802 45.3833Z" fill="white"/>
<path d="M56.2362 52.6075H47.2525V59.6224H56.2362V52.6075Z" fill="#C8EEFD"/>
<path d="M55.9237 52.8525H47.565V59.3795H55.9237V52.8525Z" stroke="#4FCDFF" stroke-width="3" stroke-miterlimit="10"/>
<path opacity="0.8" d="M56.3031 54.8166L50.0205 59.6803L47.0838 59.6828L56.2387 52.3873L56.3031 54.8166Z" fill="white"/>
<path opacity="0.8" d="M54.5892 52.6831L47.2178 58.5351L47.0838 56.8667L52.4537 52.6628L54.5892 52.6831Z" fill="white"/>
<path d="M56.2362 52.6075H47.2525V59.6224H56.2362V52.6075Z" stroke="#202020" stroke-width="2" stroke-miterlimit="10"/>
<path d="M49.5542 52.499V59.6984" stroke="#202020" stroke-width="2" stroke-miterlimit="10"/>
<path d="M53.4605 56.692C53.5498 56.6202 53.5651 56.4883 53.4949 56.3973C53.4245 56.3063 53.295 56.2906 53.2057 56.3624L51.4559 57.7666C51.3666 57.8384 51.3512 57.9704 51.4214 58.0614C51.4918 58.1524 51.6213 58.1681 51.7106 58.0965L53.4605 56.692Z" fill="white"/>
<path d="M54.6027 54.7744C54.6919 54.7026 54.7073 54.5706 54.6371 54.4796C54.5667 54.3886 54.4372 54.3729 54.3479 54.4447L52.5981 55.8492C52.5088 55.9208 52.4934 56.0527 52.5636 56.1437C52.634 56.2347 52.7635 56.2504 52.8528 56.1789L54.6027 54.7744Z" fill="white"/>
<path d="M51.976 53.5717C52.0653 53.5001 52.0807 53.3682 52.0105 53.2772C51.94 53.1859 51.8106 53.1702 51.7213 53.242L49.9714 54.6465C49.8821 54.718 49.8667 54.85 49.9369 54.941C50.0074 55.032 50.1368 55.0479 50.2261 54.9761L51.976 53.5717Z" fill="white"/>
<path d="M41.8925 60.2392C41.8925 59.7492 41.5034 59.3519 41.0232 59.3519C40.543 59.3519 40.1538 59.7492 40.1538 60.2392V64.6174C40.1538 65.1076 40.543 65.5047 41.0232 65.5047C41.5034 65.5047 41.8925 65.1076 41.8925 64.6174V60.2392Z" fill="#FBDB9E"/>
<path d="M41.8925 50.6896C41.8925 50.1994 41.5034 49.8023 41.0232 49.8023C40.543 49.8023 40.1538 50.1994 40.1538 50.6896V55.0679C40.1538 55.5578 40.543 55.9552 41.0232 55.9552C41.5034 55.9552 41.8925 55.5578 41.8925 55.0679V50.6896Z" fill="#FBDB9E"/>
<path d="M38.8789 63.6119H40.6152" stroke="#181828" stroke-width="2" stroke-linecap="round" stroke-linejoin="round"/>
<path d="M41.6346 63.9807C41.8251 63.9807 41.9793 63.8235 41.9793 63.6293C41.9793 63.4354 41.8251 63.278 41.6346 63.278C41.4443 63.278 41.2898 63.4354 41.2898 63.6293C41.2898 63.8235 41.4443 63.9807 41.6346 63.9807Z" fill="#181828"/>
<path d="M38.8789 48.1028H40.6152" stroke="#181828" stroke-width="2" stroke-linecap="round" stroke-linejoin="round"/>
<path d="M41.6346 48.4747C41.8251 48.4747 41.9793 48.3174 41.9793 48.1233C41.9793 47.9294 41.8251 47.7719 41.6346 47.7719C41.4443 47.7719 41.2898 47.9294 41.2898 48.1233C41.2898 48.3174 41.4443 48.4747 41.6346 48.4747Z" fill="#181828"/>
<path d="M56.1047 45.3429H54.3685" stroke="#181828" stroke-linecap="round" stroke-linejoin="round"/>
<path d="M53.7385 45.5292C53.8494 45.5292 53.9394 45.4377 53.9394 45.3244C53.9394 45.2115 53.8494 45.1197 53.7385 45.1197C53.6276 45.1197 53.5376 45.2115 53.5376 45.3244C53.5376 45.4377 53.6276 45.5292 53.7385 45.5292Z" fill="#181828"/>
<path d="M56.1791 64.461H54.4429" stroke="#181828" stroke-width="2" stroke-linecap="round" stroke-linejoin="round"/>
<path d="M53.426 64.7924C53.6165 64.7924 53.7707 64.6352 53.7707 64.441C53.7707 64.2471 53.6165 64.0897 53.426 64.0897C53.2357 64.0897 53.0812 64.2471 53.0812 64.441C53.0812 64.6352 53.2357 64.7924 53.426 64.7924Z" fill="#181828"/>
<path d="M62.3179 62.9847H60.5817" stroke="#181828" stroke-width="2" stroke-linecap="round" stroke-linejoin="round"/>
<path d="M59.5648 63.3181C59.7553 63.3181 59.9095 63.1609 59.9095 62.9667C59.9095 62.7728 59.7553 62.6154 59.5648 62.6154C59.3745 62.6154 59.22 62.7728 59.22 62.9667C59.22 63.1609 59.3745 63.3181 59.5648 63.3181Z" fill="#181828"/>
<path d="M7.54765 43.9852C7.54765 43.9852 13.2524 42.3977 13.2524 37.3267" stroke="#181828" stroke-width="2" stroke-linecap="round" stroke-linejoin="round"/>
<path d="M2.20007 44.0029H20.5668" stroke="#181828" stroke-width="2" stroke-linecap="round" stroke-linejoin="round"/>
<path d="M3.68329 53.0122V47.6683H21.2662V66.6729H3.68329V55.214" fill="white"/>
<path d="M21.2662 47.6703H3.68329V49.4322H21.2662V47.6703Z" fill="#C5D5DC"/>
<path d="M3.68329 53.0122V47.6683H21.2662V66.6729H3.68329V55.214" stroke="#181828" stroke-width="2" stroke-linecap="round" stroke-linejoin="round"/>
<path d="M25.5894 45.8179H1.77837V47.8402H25.5894V45.8179Z" fill="#889FAA"/>
<path d="M1.80816 45.9293H23.9772C23.9772 46.0954 23.9451 46.2597 23.8828 46.4132C23.8205 46.5663 23.7292 46.7059 23.614 46.8232C23.4988 46.9405 23.3621 47.0338 23.2117 47.0972C23.0612 47.1607 22.8999 47.1933 22.7371 47.1933H1.80816V45.9293Z" fill="#C5D5DC"/>
<path d="M2.93181 45.9473H5.73953C5.73953 46.0974 5.68099 46.2415 5.57679 46.3477C5.47262 46.4539 5.33129 46.5135 5.18393 46.5135H3.4874C3.34004 46.5135 3.19874 46.4539 3.09454 46.3477C2.99034 46.2415 2.93181 46.0974 2.93181 45.9473Z" fill="white"/>
<path d="M5.99249 45.9473H8.80021C8.80021 46.0974 8.74167 46.2415 8.63748 46.3477C8.53328 46.4539 8.39195 46.5135 8.24462 46.5135H6.54808C6.40073 46.5135 6.2594 46.4539 6.1552 46.3477C6.05103 46.2415 5.99249 46.0974 5.99249 45.9473Z" fill="white"/>
<path d="M19.654 45.8179H25.6936V47.8402H1.88252V45.8179H19.8921" stroke="#181828" stroke-width="2" stroke-miterlimit="10"/>
<path d="M4.15453 44.0385V45.7372" stroke="#181828" stroke-width="1.5" stroke-linecap="round" stroke-linejoin="round"/>
<path d="M7.36658 44.0385V45.7372" stroke="#181828" stroke-width="1.5" stroke-linecap="round" stroke-linejoin="round"/>
<path d="M22.2336 50.7778H5.49643V64.4385H22.2336V50.7778Z" fill="#F68E2A"/>
<path d="M21.7524 51.1699H5.97758V64.0444H21.7524V51.1699Z" stroke="#DE761B" stroke-width="3" stroke-miterlimit="10"/>
<path d="M10.5761 44.0385V45.7372" stroke="#181828" stroke-width="1.5" stroke-linecap="round" stroke-linejoin="round"/>
<path d="M13.5401 47.3551C13.7647 47.3551 13.9469 47.1695 13.9469 46.9405C13.9469 46.7115 13.7647 46.5259 13.5401 46.5259C13.3154 46.5259 13.1333 46.7115 13.1333 46.9405C13.1333 47.1695 13.3154 47.3551 13.5401 47.3551Z" fill="#889FAA"/>
<path d="M12.2826 47.3927C12.4524 47.3927 12.5902 47.2524 12.5902 47.0793C12.5902 46.9061 12.4524 46.7658 12.2826 46.7658C12.1127 46.7658 11.975 46.9061 11.975 47.0793C11.975 47.2524 12.1127 47.3927 12.2826 47.3927Z" fill="#889FAA"/>
<path d="M14.2147 46.8014C14.3078 46.8014 14.3833 46.7246 14.3833 46.6295C14.3833 46.5347 14.3078 46.4576 14.2147 46.4576C14.1215 46.4576 14.046 46.5347 14.046 46.6295C14.046 46.7246 14.1215 46.8014 14.2147 46.8014Z" fill="#889FAA"/>
<path d="M5.74942 58.8997H12.223C12.2888 58.8997 12.3519 58.9262 12.3984 58.9737C12.4449 59.021 12.4711 59.0855 12.4711 59.1524C12.4711 59.2194 12.4449 59.2839 12.3984 59.3312C12.3519 59.3787 12.2888 59.4052 12.223 59.4052H5.74942V58.8997Z" fill="#AE5601"/>
<path d="M7.81547 64.1144V59.2154C7.81547 59.159 7.83742 59.1049 7.87649 59.0652C7.91558 59.0253 7.96856 59.0031 8.02382 59.0031H8.08831C8.14357 59.0031 8.19655 59.0253 8.23564 59.0652C8.2747 59.1049 8.29665 59.159 8.29665 59.2154V64.1144H7.81299H7.81547Z" fill="#AE5601"/>
<path d="M10.2189 64.1144V59.2154C10.2189 59.1876 10.2243 59.1598 10.2347 59.134C10.2452 59.1085 10.2606 59.085 10.2799 59.0652C10.2993 59.0455 10.3222 59.0298 10.3475 59.0192C10.3728 59.0086 10.3999 59.0031 10.4272 59.0031H10.4917C10.5191 59.0031 10.5462 59.0086 10.5714 59.0192C10.5967 59.0298 10.6197 59.0455 10.639 59.0652C10.6584 59.085 10.6737 59.1085 10.6842 59.134C10.6947 59.1598 10.7001 59.1876 10.7001 59.2154V64.1144H10.2164H10.2189Z" fill="#AE5601"/>
<path opacity="0.8" d="M8.51244 64.4203H6.26776L9.98823 50.6484H12.2329L8.51244 64.4203Z" fill="#FFC38C"/>
<path opacity="0.8" d="M11.8956 64.4203H9.6484L13.3689 50.6484H15.616L11.8956 64.4203Z" fill="#FFC38C"/>
<path d="M22.2336 50.7214H5.49643V64.3821H22.2336V50.7214Z" stroke="#181828" stroke-width="2" stroke-linecap="round" stroke-linejoin="round"/>
<path d="M12.6917 34.6573V30.8401H18.1484V48.5353H12.6917V43.108" fill="white"/>
<path d="M18.0989 30.6428V48.3379H12.6422V47.3546H17.2283V30.6428H18.0989Z" fill="#D6E6FF"/>
<path d="M39.3552 15.7993H20.0087V65.8513H39.3552V15.7993Z" fill="#D15F39"/>
<path d="M37.9339 18.1277V19.1388" stroke="#F7A387" stroke-linecap="round" stroke-linejoin="round"/>
<path d="M37.4875 19.3077V20.3188" stroke="#F7A387" stroke-linecap="round" stroke-linejoin="round"/>
<path d="M36.8302 20.542H39.189C39.2383 20.542 39.2857 20.5221 39.3207 20.4865C39.3554 20.4509 39.375 20.4027 39.375 20.3524C39.375 20.3022 39.3554 20.2539 39.3207 20.2184C39.2857 20.1828 39.2383 20.1628 39.189 20.1628H36.8203C36.7709 20.1628 36.7238 20.1828 36.6888 20.2184C36.6538 20.2539 36.6343 20.3022 36.6343 20.3524C36.6343 20.4027 36.6538 20.4509 36.6888 20.4865C36.7238 20.5221 36.7709 20.542 36.8203 20.542H36.8302Z" fill="#F7A387"/>
<path d="M34.2705 18.1553H39.1195C39.1689 18.1553 39.2163 18.1353 39.251 18.0998C39.286 18.0642 39.3056 18.016 39.3056 17.9657C39.3056 17.9154 39.286 17.8672 39.251 17.8317C39.2163 17.7961 39.1689 17.7761 39.1195 17.7761H34.2705C34.2212 17.7761 34.1738 17.7961 34.1391 17.8317C34.1041 17.8672 34.0845 17.9154 34.0845 17.9657C34.0845 18.016 34.1041 18.0642 34.1391 18.0998C34.1738 18.1353 34.2212 18.1553 34.2705 18.1553Z" fill="#F7A387"/>
<path d="M35.7587 19.3739H39.1195C39.1689 19.3739 39.2163 19.3539 39.251 19.3184C39.286 19.2828 39.3056 19.2346 39.3056 19.1843C39.3056 19.134 39.286 19.0858 39.251 19.0502C39.2163 19.0147 39.1689 18.9947 39.1195 18.9947H35.7587C35.7093 18.9947 35.662 19.0147 35.6272 19.0502C35.5923 19.0858 35.5727 19.134 35.5727 19.1843C35.5727 19.2346 35.5923 19.2828 35.6272 19.3184C35.662 19.3539 35.7093 19.3739 35.7587 19.3739Z" fill="#F7A387"/>
<path d="M39.3899 15.7134H20.0434V17.6143H39.3899V15.7134Z" fill="#A72E08"/>
<path d="M39.3552 23.3829H20.0087V25.5316H39.3552V23.3829Z" fill="#A72E08"/>
<path d="M39.3304 25.6027H37.8521V66.1752H39.3304V25.6027Z" fill="#A72E08"/>
<path d="M20.0063 26.7955C20.4667 26.7955 20.9083 26.9821 21.234 27.3137C21.5596 27.6457 21.7425 28.0956 21.7425 28.565V65.9777H20.0063V26.7955Z" fill="#F7A387"/>
<path d="M20.1104 17.9353V15.9257H39.2088V28.555" stroke="#181828" stroke-width="3" stroke-linecap="round" stroke-linejoin="round"/>
<path d="M20.1104 30.7216V19.8291" stroke="#181828" stroke-width="3" stroke-linecap="round" stroke-linejoin="round"/>
<path d="M18.3965 35.1376H19.8847" stroke="#181828" stroke-width="4" stroke-miterlimit="10"/>
<path d="M12.6917 34.6573V30.8401H18.1484V48.5353H12.6917V42.8552" stroke="#181828" stroke-width="2" stroke-linecap="round" stroke-linejoin="round"/>
<path d="M12.6917 41.5227V38.1177" stroke="#181828" stroke-width="2" stroke-linecap="round" stroke-linejoin="round"/>
<path d="M12.6917 36.7928V36.1685" stroke="#181828" stroke-width="2" stroke-linecap="round" stroke-linejoin="round"/>
<path d="M29.6596 26.5428C31.2383 26.5428 32.7526 27.1821 33.869 28.3196C34.9853 29.4574 35.6124 31.0007 35.6124 32.6097V46.2603H23.7069V32.6097C23.7069 31.0007 24.334 29.4574 25.4505 28.3196C26.5667 27.1821 28.0809 26.5428 29.6596 26.5428Z" fill="#C8EEFD"/>
<path d="M29.6596 27.2197C31.1287 27.2197 32.5375 27.814 33.5768 28.872C34.6163 29.9299 35.2011 31.365 35.2031 32.862V45.5722H24.1186V32.862C24.1186 31.3637 24.7027 29.9266 25.7422 28.8672C26.7819 27.8075 28.192 27.2122 29.6621 27.2122L29.6596 27.2197Z" stroke="#4FCDFF" stroke-width="4" stroke-miterlimit="10"/>
<path d="M29.739 50.3483C31.3507 50.3483 32.8962 51.0008 34.0359 52.1623C35.1756 53.3236 35.8157 54.899 35.8157 56.5416V66.0212H23.6622V56.5416C23.6622 54.899 24.3024 53.3236 25.4421 52.1623C26.5815 51.0008 28.1273 50.3483 29.739 50.3483Z" fill="#C8EEFD"/>
<path d="M29.6596 50.7829C31.1299 50.7829 32.54 51.378 33.5795 52.4376C34.6192 53.4971 35.2031 54.9342 35.2031 56.4327V65.2803H24.1186V56.4327C24.1186 54.9347 24.7024 53.4978 25.7415 52.4384C26.7805 51.379 28.1898 50.7834 29.6596 50.7829Z" stroke="#4FCDFF" stroke-width="3" stroke-miterlimit="10"/>
<path d="M20.3807 27.5539H22.1169" stroke="#181828" stroke-width="2" stroke-linecap="round" stroke-linejoin="round"/>
<path d="M23.1339 27.923C23.3243 27.923 23.4786 27.7655 23.4786 27.5716C23.4786 27.3774 23.3243 27.2202 23.1339 27.2202C22.9435 27.2202 22.7891 27.3774 22.7891 27.5716C22.7891 27.7655 22.9435 27.923 23.1339 27.923Z" fill="#181828"/>
<path d="M23.7291 16.0521V17.5688" stroke="#F7A387" stroke-linecap="round" stroke-linejoin="round"/>
<path d="M22.8115 17.8878V18.8989" stroke="#F7A387" stroke-linecap="round" stroke-linejoin="round"/>
<path d="M24.5626 19.0628V20.074" stroke="#F7A387" stroke-linecap="round" stroke-linejoin="round"/>
<path d="M26.6435 19.0272V20.2912" stroke="#F7A387" stroke-linecap="round" stroke-linejoin="round"/>
<path d="M25.3662 17.8878V18.8989" stroke="#F7A387" stroke-linecap="round" stroke-linejoin="round"/>
<path d="M21.8689 56.119H20.1327" stroke="#202020" stroke-width="2" stroke-miterlimit="10"/>
<path d="M39.2311 56.119H37.4949" stroke="#202020" stroke-width="2" stroke-miterlimit="10"/>
<path d="M39.2311 43.7324H37.4949" stroke="#202020" stroke-width="2" stroke-miterlimit="10"/>
<path d="M39.2311 25.5316H37.4949" stroke="#202020" stroke-width="2" stroke-miterlimit="10"/>
<path d="M15.4201 35.8959C16.105 35.8959 16.6603 35.3299 16.6603 34.632C16.6603 33.934 16.105 33.368 15.4201 33.368C14.7352 33.368 14.1799 33.934 14.1799 34.632C14.1799 35.3299 14.7352 35.8959 15.4201 35.8959Z" fill="#FA4040"/>
<path d="M15.4201 45.5019C16.105 45.5019 16.6603 44.9359 16.6603 44.2379C16.6603 43.54 16.105 42.974 15.4201 42.974C14.7352 42.974 14.1799 43.54 14.1799 44.2379C14.1799 44.9359 14.7352 45.5019 15.4201 45.5019Z" fill="#FA4040"/>
<path d="M41.4634 21.487H17.6524V23.5093H41.4634V21.487Z" fill="#889FAA"/>
<path d="M17.6524 21.487H39.8215C39.8215 21.653 39.7895 21.8173 39.727 21.9707C39.6647 22.124 39.5734 22.2634 39.4581 22.3807C39.343 22.4981 39.2063 22.5912 39.0558 22.6547C38.9055 22.7183 38.7443 22.7509 38.5813 22.7509H17.6524V21.487Z" fill="#C5D5DC"/>
<path d="M40.9674 1.14299V11.5073C40.9646 11.6745 40.8977 11.8339 40.7808 11.9512C40.6638 12.0685 40.5063 12.1342 40.3423 12.1342H19.0116C18.8458 12.1342 18.6868 12.0671 18.5696 11.9477C18.4524 11.8282 18.3866 11.6661 18.3866 11.4972V10.2838C20.76 8.29471 23.8104 7.34567 26.8693 7.64469C29.4885 7.9177 31.9465 9.09822 34.5582 9.41421C35.5752 9.5406 36.7136 9.49763 37.4751 8.79488C38.0431 8.27161 38.2886 7.47027 38.3705 6.69421C38.4573 5.86759 38.3705 4.98789 37.9265 4.29272C37.743 4.0096 37.5048 3.76692 37.3188 3.4838C36.9879 2.93773 36.8032 2.31281 36.7831 1.67132C36.7397 1.28336 36.7856 0.890411 36.917 0.523661L36.9294 0.495855H40.3299C40.4138 0.494146 40.4973 0.509697 40.5752 0.541581C40.6531 0.573466 40.724 0.62103 40.7836 0.681431C40.8431 0.741833 40.89 0.813834 40.9215 0.893136C40.9532 0.972438 40.9686 1.05742 40.9674 1.14299Z" fill="#D6E6FF"/>
<path d="M41.5651 14.1561H17.7541V16.1784H41.5651V14.1561Z" fill="#C5D5DC"/>
<path d="M17.9004 14.1187H30.9419C30.9419 14.3868 30.8373 14.644 30.6512 14.8336C30.4652 15.0233 30.213 15.1298 29.9498 15.1298H17.9004V14.1187Z" fill="white"/>
<path d="M27.6704 14.1561H41.5651V16.1784H17.7541V14.1561H22.9851" stroke="#181828" stroke-width="2" stroke-miterlimit="10"/>
<path d="M23.9996 14.1561H26.8048" stroke="#181828" stroke-width="2" stroke-miterlimit="10"/>
<path d="M28.6799 0.252813H40.32C40.4857 0.252813 40.6447 0.319928 40.762 0.439393C40.8793 0.558858 40.945 0.720891 40.945 0.889839V11.2541C40.9426 11.4213 40.8753 11.5808 40.7585 11.6981C40.6417 11.8154 40.4842 11.8811 40.32 11.8811H19.0017C18.9194 11.8814 18.8379 11.8652 18.7617 11.8333C18.6856 11.8014 18.6165 11.7546 18.5581 11.6954C18.4998 11.6362 18.4536 11.5659 18.422 11.4884C18.3904 11.411 18.3742 11.3279 18.3742 11.244V0.879727C18.3768 0.712099 18.4441 0.552273 18.5616 0.434916C18.6791 0.317557 18.8372 0.252127 19.0017 0.252813H23.501" stroke="#181828" stroke-width="2" stroke-miterlimit="10"/>
<path d="M24.5873 0.252808H27.6481" stroke="#181828" stroke-width="2" stroke-miterlimit="10"/>
<path d="M21.1323 11.881H20.1228V13.9033H21.1323V11.881Z" fill="#181828"/>
<path d="M39.2832 11.881H38.2737V13.9033H39.2832V11.881Z" fill="#181828"/>
<path d="M30.2078 11.881H29.1983V13.9033H30.2078V11.881Z" fill="#181828"/>
<path d="M20.8768 3.28626C21.2877 3.28626 21.6209 2.94674 21.6209 2.5279C21.6209 2.10906 21.2877 1.76953 20.8768 1.76953C20.4658 1.76953 20.1327 2.10906 20.1327 2.5279C20.1327 2.94674 20.4658 3.28626 20.8768 3.28626Z" fill="#FA4040"/>
<path d="M20.8768 10.1115C21.2877 10.1115 21.6209 9.772 21.6209 9.35315C21.6209 8.93431 21.2877 8.59479 20.8768 8.59479C20.4658 8.59479 20.1327 8.93431 20.1327 9.35315C20.1327 9.772 20.4658 10.1115 20.8768 10.1115Z" fill="#FA4040"/>
<path d="M38.487 3.28626C38.898 3.28626 39.2311 2.94674 39.2311 2.5279C39.2311 2.10906 38.898 1.76953 38.487 1.76953C38.0761 1.76953 37.743 2.10906 37.743 2.5279C37.743 2.94674 38.0761 3.28626 38.487 3.28626Z" fill="#FA4040"/>
<path d="M38.487 10.1115C38.898 10.1115 39.2311 9.772 39.2311 9.35315C39.2311 8.93431 38.898 8.59479 38.487 8.59479C38.0761 8.59479 37.743 8.93431 37.743 9.35315C37.743 9.772 38.0761 10.1115 38.487 10.1115Z" fill="#FA4040"/>
<path d="M38.3531 28.3221H36.0539C35.8334 28.3221 35.6545 28.5039 35.6545 28.7279C35.6545 28.9518 35.8334 29.1336 36.0539 29.1336H38.3531C38.5736 29.1336 38.7524 28.9518 38.7524 28.7279C38.7524 28.5039 38.5736 28.3221 38.3531 28.3221Z" fill="#A72E08"/>
<path d="M37.9736 48.4188H33.4421C33.2216 48.4188 33.0428 48.6006 33.0428 48.8245C33.0428 49.0485 33.2216 49.2303 33.4421 49.2303H37.9736C38.1941 49.2303 38.373 49.0485 38.373 48.8245C38.373 48.6006 38.1941 48.4188 37.9736 48.4188Z" fill="#A72E08"/>
<path d="M32.0903 49.2403C32.3299 49.2403 32.5244 49.0424 32.5244 48.798C32.5244 48.5538 32.3299 48.3556 32.0903 48.3556C31.8505 48.3556 31.6563 48.5538 31.6563 48.798C31.6563 49.0424 31.8505 49.2403 32.0903 49.2403Z" fill="#A72E08"/>
<path opacity="0.8" d="M35.4412 53.9905L23.6572 64.102V61.0711L34.2011 52.2235L35.4412 53.9905Z" fill="white"/>
<path opacity="0.8" d="M35.4412 59.5033L27.6257 66.0758L23.6572 66.0783L35.6893 56.2196L35.4412 59.5033Z" fill="white"/>
<path opacity="0.7" d="M35.4412 34.273L23.6572 44.3845V41.3536L35.4685 31.3862L35.4412 34.273Z" fill="white"/>
<path opacity="0.7" d="M35.4412 39.7888L27.6257 46.3613L23.6572 46.3639L35.6893 36.5051L35.4412 39.7888Z" fill="white"/>
<path d="M39.2088 32.0508V65.9775H20.1104V61.2958" stroke="#181828" stroke-width="3" stroke-linecap="round" stroke-linejoin="round"/>
<path d="M29.6596 50.3049C31.2713 50.3049 32.8171 50.9573 33.9565 52.1189C35.0962 53.2804 35.7364 54.8556 35.7364 56.4982V65.9777H23.5829V56.4982C23.5829 54.8556 24.2231 53.2804 25.3627 52.1189C26.5024 50.9573 28.0479 50.3049 29.6596 50.3049Z" stroke="#181828" stroke-width="2" stroke-miterlimit="10"/>
<path d="M29.5579 50.3049V65.7249" stroke="#202020" stroke-width="2" stroke-miterlimit="10"/>
<path d="M35.7587 55.3606H23.6051" stroke="#202020" stroke-width="2" stroke-miterlimit="10"/>
<path d="M26.8296 54.1548V55.3606" stroke="#202020" stroke-width="2" stroke-miterlimit="10"/>
<path d="M26.8296 50.8104V53.1689" stroke="#202020" stroke-width="2" stroke-miterlimit="10"/>
<path d="M32.2863 50.8104V55.3606" stroke="#202020" stroke-width="2" stroke-miterlimit="10"/>
<path d="M20.2518 34.4621C20.5386 34.4641 20.813 34.5817 21.0152 34.7892C21.2173 34.9965 21.3307 35.2771 21.3307 35.5693V37.9809C21.3307 38.2746 21.2163 38.5563 21.0125 38.7638C20.8088 38.9716 20.5325 39.0881 20.2444 39.0881V34.4621H20.2518Z" fill="white"/>
<path d="M28.7826 37.9655C28.9329 37.8376 28.9532 37.6096 28.8277 37.4564C28.7025 37.303 28.4787 37.2823 28.3282 37.4102L25.385 39.9112C25.2345 40.0392 25.2141 40.2669 25.3396 40.4204C25.4651 40.5736 25.6889 40.5943 25.8392 40.4664L28.7826 37.9655Z" fill="white"/>
<path d="M33.7578 34.6663C33.9081 34.5384 33.9285 34.3104 33.803 34.1572C33.6777 34.0038 33.454 33.9831 33.3034 34.111L30.3603 36.6121C30.2097 36.74 30.1894 36.9677 30.3149 37.1212C30.4404 37.2746 30.6641 37.2951 30.8144 37.1674L33.7578 34.6663Z" fill="white"/>
<path d="M34.6773 39.8839C34.8276 39.7562 34.8479 39.5282 34.7224 39.3748C34.5972 39.2216 34.3734 39.2009 34.2229 39.3288L31.2797 41.8298C31.1292 41.9575 31.1089 42.1855 31.2344 42.339C31.3599 42.4922 31.5836 42.5129 31.7339 42.385L34.6773 39.8839Z" fill="white"/>
<path d="M29.7541 42.2538C29.9047 42.1262 29.925 41.8981 29.7995 41.7447C29.674 41.5915 29.4503 41.5708 29.3 41.6987L26.3566 44.1998C26.2063 44.3274 26.1859 44.5555 26.3114 44.7089C26.4367 44.8621 26.6604 44.8828 26.811 44.7549L29.7541 42.2538Z" fill="white"/>
<path d="M20.2518 50.1656C20.5391 50.1676 20.8139 50.2854 21.0161 50.4935C21.2183 50.7015 21.3314 50.9826 21.3307 51.2753V53.6869C21.3307 53.9807 21.2163 54.2623 21.0125 54.4698C20.8088 54.6776 20.5325 54.7941 20.2444 54.7941V50.1656H20.2518Z" fill="white"/>
<path d="M20.1104 59.2614V32.3647" stroke="#181828" stroke-width="3" stroke-linecap="round" stroke-linejoin="round"/>
<path d="M29.6596 26.5428C31.2383 26.5428 32.7526 27.1821 33.869 28.3196C34.9853 29.4574 35.6124 31.0007 35.6124 32.6097V46.2603H23.7069V32.6097C23.7069 31.0007 24.334 29.4574 25.4505 28.3196C26.5667 27.1821 28.0809 26.5428 29.6596 26.5428Z" stroke="#181828" stroke-width="2" stroke-miterlimit="10"/>
<path d="M29.5579 32.3569V46.513" stroke="#202020" stroke-width="2" stroke-miterlimit="10"/>
<path d="M35.7587 32.3569H23.6051" stroke="#202020" stroke-width="2" stroke-miterlimit="10"/>
<path d="M25.3141 33.209H25.3116C25.0787 33.209 24.89 33.4014 24.89 33.6388V37.0388C24.89 37.2762 25.0787 37.4685 25.3116 37.4685H25.3141C25.547 37.4685 25.7357 37.2762 25.7357 37.0388V33.6388C25.7357 33.4014 25.547 33.209 25.3141 33.209Z" fill="white"/>
<path d="M7.27722 54.1144H7.27474C7.04187 54.1144 6.85309 54.3068 6.85309 54.5441V57.9441C6.85309 58.1815 7.04187 58.3739 7.27474 58.3739H7.27722C7.5101 58.3739 7.69888 58.1815 7.69888 57.9441V54.5441C7.69888 54.3068 7.5101 54.1144 7.27722 54.1144Z" fill="white"/>
<path d="M21.4969 17.8473H29.5703C29.6197 17.8473 29.6671 17.8273 29.7018 17.7917C29.7367 17.7562 29.7563 17.7079 29.7563 17.6577C29.7563 17.6074 29.7367 17.5592 29.7018 17.5236C29.6671 17.488 29.6197 17.4681 29.5703 17.4681H21.4969C21.4475 17.4681 21.4002 17.488 21.3653 17.5236C21.3304 17.5592 21.3108 17.6074 21.3108 17.6577C21.3108 17.7079 21.3304 17.7562 21.3653 17.7917C21.4002 17.8273 21.4475 17.8473 21.4969 17.8473Z" fill="#F7A387"/>
<path d="M21.4969 19.1941H32.0506C32.1 19.1941 32.1474 19.1742 32.1821 19.1386C32.2171 19.103 32.2367 19.0548 32.2367 19.0045C32.2367 18.9543 32.2171 18.906 32.1821 18.8705C32.1474 18.8349 32.1 18.8149 32.0506 18.8149H21.4969C21.4475 18.8149 21.4002 18.8349 21.3653 18.8705C21.3304 18.906 21.3108 18.9543 21.3108 19.0045C21.3108 19.0548 21.3304 19.103 21.3653 19.1386C21.4002 19.1742 21.4475 19.1941 21.4969 19.1941Z" fill="#F7A387"/>
<path d="M22.241 20.542H29.5703C29.6197 20.542 29.6671 20.5221 29.7018 20.4865C29.7367 20.4509 29.7563 20.4027 29.7563 20.3524C29.7563 20.3022 29.7367 20.2539 29.7018 20.2184C29.6671 20.1828 29.6197 20.1628 29.5703 20.1628H22.241C22.1916 20.1628 22.1443 20.1828 22.1094 20.2184C22.0745 20.2539 22.0549 20.3022 22.0549 20.3524C22.0549 20.4027 22.0745 20.4509 22.1094 20.4865C22.1443 20.5221 22.1916 20.542 22.241 20.542Z" fill="#F7A387"/>
<path d="M29.414 23.0242C29.6388 23.0242 29.8208 22.8385 29.8208 22.6096C29.8208 22.3806 29.6388 22.195 29.414 22.195C29.1893 22.195 29.0073 22.3806 29.0073 22.6096C29.0073 22.8385 29.1893 23.0242 29.414 23.0242Z" fill="#889FAA"/>
<path d="M28.1565 23.0619C28.3264 23.0619 28.4641 22.9215 28.4641 22.7484C28.4641 22.5753 28.3264 22.4349 28.1565 22.4349C27.9866 22.4349 27.849 22.5753 27.849 22.7484C27.849 22.9215 27.9866 23.0619 28.1565 23.0619Z" fill="#889FAA"/>
<path d="M30.0862 22.4707C30.1795 22.4707 30.2549 22.3937 30.2549 22.2988C30.2549 22.2039 30.1795 22.1269 30.0862 22.1269C29.9932 22.1269 29.9176 22.2039 29.9176 22.2988C29.9176 22.3937 29.9932 22.4707 30.0862 22.4707Z" fill="#889FAA"/>
<path d="M17.8137 21.565H20.6214C20.6214 21.7165 20.5624 21.8618 20.4572 21.969C20.3521 22.0761 20.2095 22.1363 20.0609 22.1363H17.8137V21.565Z" fill="white"/>
<path d="M20.8744 21.565H23.6821C23.6821 21.7165 23.623 21.8618 23.5179 21.969C23.4128 22.0761 23.2702 22.1363 23.1215 22.1363H21.4349C21.3613 22.1363 21.2884 22.1215 21.2204 22.0928C21.1524 22.0641 21.0906 22.022 21.0386 21.969C20.9865 21.9159 20.9452 21.853 20.917 21.7836C20.8889 21.7143 20.8744 21.64 20.8744 21.565Z" fill="white"/>
<path d="M35.528 21.487H41.5651V23.5093H17.7541V21.487H34.278" stroke="#181828" stroke-width="2" stroke-miterlimit="10"/>
<path d="M15.7847 49.749V65.6468" stroke="#181828" stroke-width="2" stroke-linecap="round" stroke-linejoin="round"/>
<path d="M7.27722 53.4141C7.53751 53.4141 7.74848 53.199 7.74848 52.9338C7.74848 52.6687 7.53751 52.4536 7.27722 52.4536C7.01696 52.4536 6.80596 52.6687 6.80596 52.9338C6.80596 53.199 7.01696 53.4141 7.27722 53.4141Z" fill="white"/>
<path d="M14.6488 30.8682C14.6488 30.8682 20.0162 29.9835 20.0162 24.9125" stroke="#181828" stroke-width="2" stroke-linecap="round" stroke-linejoin="round"/>
<path d="M1.94453 46.824H5.15156" stroke="#181828" stroke-linecap="round" stroke-linejoin="round"/>
<path d="M20.3807 48.1483H22.1169" stroke="#181828" stroke-width="2" stroke-linecap="round" stroke-linejoin="round"/>
<path d="M23.1339 48.5171C23.3243 48.5171 23.4786 48.3599 23.4786 48.1658C23.4786 47.9719 23.3243 47.8144 23.1339 47.8144C22.9435 47.8144 22.7891 47.9719 22.7891 48.1658C22.7891 48.3599 22.9435 48.5171 23.1339 48.5171Z" fill="#181828"/>
<path d="M61.1596 65.7219H0.143879V67.7442H61.1596V65.7219Z" fill="#889FAA"/>
<path d="M57.1911 65.7219H0.143879V66.7331H57.1911V65.7219Z" fill="#C5D5DC"/>
<path d="M55.2267 65.7219H61.2638V67.7442H0.248032V65.7219H55.4648" stroke="#181828" stroke-width="2" stroke-miterlimit="10"/>
<path d="M56.1643 40.6486H50.7299V44.2054H56.1643V40.6486Z" fill="white"/>
<path d="M56.1643 40.5922H50.7299V41.3961H56.1643V40.5922Z" fill="#C5D5DC"/>
<path d="M56.1643 40.5922H50.7299V44.149H56.1643V40.5922Z" stroke="#181828" stroke-width="2" stroke-linecap="round" stroke-linejoin="round"/>
<path d="M53.4781 43.1055C53.8 43.1055 54.0609 42.8395 54.0609 42.5114C54.0609 42.1833 53.8 41.9174 53.4781 41.9174C53.1561 41.9174 52.8952 42.1833 52.8952 42.5114C52.8952 42.8395 53.1561 43.1055 53.4781 43.1055Z" stroke="#181828" stroke-width="1.5" stroke-linecap="round" stroke-linejoin="round"/>
</g>
</g>
<defs>
<clipPath id="clip0_15_761">
<rect width="63" height="68" fill="white"/>
</clipPath>
</defs>
</svg>
